<svg width="120" height="120" viewBox="0 0 120 120" fill="none" xmlns="http://www.w3.org/2000/svg">
<rect x="0.5" y="0.5" width="119" height="119" rx="3.5" fill="white"/>
<path d="M57 61H63M60 58V64M65 69H55C54.4696 69 53.9609 68.7893 53.5858 68.4142C53.2107 68.0391 53 67.5304 53 67V53C53 52.4696 53.2107 51.9609 53.5858 51.5858C53.9609 51.2107 54.4696 51 55 51H60.586C60.8512 51.0001 61.1055 51.1055 61.293 51.293L66.707 56.707C66.8946 56.8945 66.9999 57.1488 67 57.414V67C67 67.5304 66.7893 68.0391 66.4142 68.4142C66.0391 68.7893 65.5304 69 65 69Z" stroke="#008DEB" stroke-width="2" stroke-linecap="round" stroke-linejoin="round"/>
<rect x="0.5" y="0.5" width="119" height="119" rx="3.5" stroke="#008DEB"/>
</svg>
