<svg width="455" height="457" viewBox="0 0 455 457" fill="none" xmlns="http://www.w3.org/2000/svg">
<path d="M102.155 285.784H10.8395V367.998H102.155V285.784Z" fill="#F5F5F5"/>
<path d="M101.648 301.349C101.648 301.485 81.5213 301.593 56.7273 301.593C31.9332 301.593 11.807 301.485 11.807 301.349C11.807 301.212 31.9332 301.104 56.7273 301.104C81.5213 301.104 101.648 301.251 101.648 301.349Z" fill="#E0E0E0"/>
<path d="M21.0341 295.266C21.0341 295.714 20.9013 296.152 20.6523 296.524C20.4034 296.897 20.0496 297.187 19.6356 297.359C19.2216 297.53 18.7661 297.575 18.3266 297.488C17.8871 297.4 17.4835 297.184 17.1666 296.868C16.8498 296.551 16.634 296.147 16.5466 295.708C16.4592 295.268 16.504 294.813 16.6755 294.399C16.847 293.985 17.1374 293.631 17.5099 293.382C17.8825 293.133 18.3205 293 18.7686 293C19.3695 293 19.9457 293.239 20.3706 293.664C20.7955 294.089 21.0341 294.665 21.0341 295.266Z" fill="#E0E0E0"/>
<path d="M27.7242 295.266C27.7242 295.714 27.5911 296.153 27.3417 296.525C27.0923 296.898 26.7379 297.188 26.3234 297.36C25.9088 297.531 25.4528 297.575 25.0131 297.487C24.5733 297.399 24.1697 297.182 23.8532 296.864C23.5368 296.546 23.3218 296.142 23.2355 295.702C23.1492 295.262 23.1954 294.806 23.3684 294.392C23.5414 293.978 23.8333 293.625 24.2071 293.377C24.581 293.129 25.0199 292.998 25.4684 293C25.7655 293 26.0596 293.059 26.3339 293.173C26.6083 293.287 26.8574 293.454 27.067 293.664C27.2766 293.875 27.4425 294.125 27.5553 294.399C27.6681 294.674 27.7255 294.969 27.7242 295.266Z" fill="#E0E0E0"/>
<path d="M34.4223 295.266C34.4223 295.714 34.2895 296.152 34.0405 296.524C33.7916 296.897 33.4377 297.187 33.0238 297.359C32.6098 297.53 32.1543 297.575 31.7148 297.488C31.2753 297.4 30.8716 297.184 30.5548 296.868C30.238 296.551 30.0222 296.147 29.9348 295.708C29.8474 295.268 29.8922 294.813 30.0637 294.399C30.2352 293.985 30.5255 293.631 30.8981 293.382C31.2707 293.133 31.7087 293 32.1568 293C32.7576 293 33.3339 293.239 33.7588 293.664C34.1836 294.089 34.4223 294.665 34.4223 295.266Z" fill="#E0E0E0"/>
<path d="M420.494 355.223C418.477 359.293 415.298 362.672 411.36 364.934C407.422 367.196 402.901 368.238 398.37 367.929C393.838 367.62 389.501 365.973 385.906 363.198C382.311 360.422 379.621 356.642 378.176 352.336C376.731 348.031 376.596 343.393 377.788 339.011C378.98 334.628 381.445 330.698 384.872 327.718C388.299 324.738 392.533 322.841 397.039 322.269C401.544 321.696 406.118 322.473 410.181 324.502C415.622 327.209 419.765 331.966 421.698 337.727C423.632 343.489 423.199 349.782 420.494 355.223Z" fill="#F5F5F5"/>
<path d="M415.61 352.793C414.066 355.891 411.638 358.46 408.633 360.177C405.627 361.894 402.181 362.68 398.728 362.437C395.276 362.194 391.973 360.932 389.239 358.81C386.504 356.689 384.46 353.805 383.366 350.521C382.271 347.238 382.175 343.704 383.09 340.366C384.006 337.028 385.89 334.037 388.506 331.771C391.122 329.505 394.352 328.066 397.786 327.636C401.22 327.206 404.704 327.805 407.798 329.357C411.942 331.429 415.092 335.062 416.557 339.457C418.022 343.852 417.682 348.649 415.61 352.793Z" fill="#EBEBEB"/>
<path d="M415.845 352.297C415.95 351.588 416.127 350.891 416.372 350.217C417.211 347.076 417.191 343.767 416.313 340.637C415.893 339.192 415.289 337.807 414.517 336.516C413.673 335.091 412.619 333.8 411.392 332.688C410.75 332.092 410.061 331.55 409.331 331.067C408.581 330.569 407.794 330.128 406.978 329.749C406.16 329.36 405.315 329.034 404.449 328.772C403.606 328.538 402.748 328.369 401.88 328.264C401.042 328.158 400.196 328.119 399.351 328.147C398.539 328.165 397.73 328.243 396.929 328.382C395.447 328.638 394.003 329.081 392.633 329.7C389.684 331.063 387.16 333.199 385.328 335.881C384.547 337.004 384.176 337.678 384.078 337.639C384.198 336.913 384.471 336.22 384.879 335.608C385.847 333.848 387.131 332.282 388.668 330.989C390.975 329.048 393.743 327.733 396.705 327.171C397.562 327.004 398.43 326.903 399.302 326.868C400.211 326.825 401.122 326.854 402.027 326.956C402.964 327.059 403.892 327.239 404.8 327.493C405.734 327.752 406.648 328.078 407.534 328.469C408.417 328.88 409.266 329.36 410.073 329.905C410.857 330.431 411.599 331.019 412.29 331.663C412.955 332.283 413.569 332.955 414.126 333.674C414.669 334.357 415.155 335.082 415.581 335.842C416.38 337.238 416.984 338.736 417.378 340.295C417.719 341.649 417.896 343.039 417.905 344.436C417.925 346.436 417.574 348.422 416.87 350.295C416.362 351.691 415.923 352.336 415.845 352.297Z" fill="#E0E0E0"/>
<path d="M397.075 355.198L395.747 357.99L393.306 356.809L394.585 354.133C392.442 353.022 390.655 351.33 389.429 349.25L392.212 346.907C393.145 348.563 394.49 349.949 396.118 350.93L398.071 346.838C395.669 344.885 393.062 342.503 394.751 339.026C396.001 336.429 398.96 335.12 403.042 336.526L404.36 333.812L406.811 334.983L405.571 337.581C407.278 338.529 408.737 339.867 409.829 341.487L407.153 343.919C406.322 342.69 405.253 341.64 404.009 340.833L402.007 345.003C404.419 346.956 406.977 349.29 405.317 352.746C404.067 355.276 401.147 356.584 397.075 355.198ZM399.829 343.186L401.509 339.71C400.063 339.378 399.214 339.846 398.823 340.686C398.433 341.526 398.921 342.366 399.829 343.186ZM401.206 351.125C401.616 350.266 401.138 349.456 400.229 348.586L398.599 351.965C399.985 352.287 400.825 351.907 401.206 351.155V351.125Z" fill="#55B3F2"/>
<path d="M436.587 443.492C436.587 443.628 341.814 443.746 224.924 443.746C108.034 443.746 13.2421 443.628 13.2421 443.492C13.2421 443.355 107.965 443.238 224.924 443.238C341.883 443.238 436.587 443.345 436.587 443.492Z" fill="#263238"/>
<path d="M262.89 188.463L260.673 278.421C260.302 293.723 256.621 316.115 232.462 314.415C211.613 311.369 206.789 291.34 207.16 277.063C207.336 270.296 207.462 264.652 207.433 263.949C207.433 263.949 184.582 261.234 183.489 238.559C182.961 227.583 183.704 204.898 184.621 184.371C185.103 173.743 189.568 163.686 197.128 156.2C204.688 148.715 214.789 144.349 225.421 143.972L227.608 143.894C251.279 144.392 264.072 164.802 262.89 188.463Z" fill="#FFBE9D"/>
<path d="M207.433 263.949C207.433 263.949 221.778 264.281 236.729 254.184C236.729 254.184 230.108 271.039 207.365 269.808L207.433 263.949Z" fill="#EB996E"/>
<path d="M222.96 195.054C223.389 195.532 226.085 193.521 229.883 193.56C233.682 193.599 236.436 195.513 236.856 195.093C237.061 194.878 236.621 194.029 235.42 193.14C233.794 191.966 231.84 191.334 229.835 191.333C227.855 191.314 225.922 191.938 224.327 193.111C223.165 193.99 222.764 194.839 222.96 195.054Z" fill="#263238"/>
<path d="M222.237 203.697C222.258 204.496 222.59 205.256 223.163 205.815C223.736 206.373 224.504 206.685 225.304 206.685C225.696 206.703 226.087 206.643 226.456 206.507C226.824 206.371 227.161 206.162 227.447 205.894C227.733 205.625 227.962 205.302 228.12 204.943C228.279 204.584 228.364 204.196 228.37 203.804C228.35 203.005 228.018 202.245 227.445 201.686C226.872 201.128 226.104 200.816 225.304 200.816C224.912 200.798 224.52 200.858 224.152 200.994C223.784 201.13 223.447 201.339 223.161 201.607C222.875 201.876 222.646 202.199 222.487 202.558C222.328 202.917 222.244 203.304 222.237 203.697Z" fill="#263238"/>
<path d="M212.501 221.078C212.501 220.882 210.323 220.589 206.798 220.257C205.9 220.199 205.05 220.052 204.845 219.457C204.741 218.537 204.918 217.608 205.353 216.791C206.115 214.603 206.906 212.308 207.745 209.955C211.056 200.19 213.419 192.114 213.028 191.987C212.638 191.86 209.62 199.692 206.31 209.486C205.509 211.895 204.747 214.203 204.025 216.41C203.732 217.435 203.185 218.607 203.693 219.925C203.835 220.234 204.044 220.507 204.306 220.724C204.569 220.94 204.876 221.094 205.206 221.175C205.705 221.294 206.217 221.346 206.73 221.332C210.265 221.341 212.491 221.273 212.501 221.078Z" fill="#263238"/>
<path d="M225.118 180.855C225.45 181.714 228.516 181.187 232.139 181.509C235.762 181.831 238.731 182.739 239.18 181.948C239.385 181.568 238.848 180.777 237.637 179.995C236.047 179.011 234.24 178.431 232.373 178.306C230.514 178.139 228.642 178.435 226.924 179.165C225.616 179.741 224.971 180.445 225.118 180.855Z" fill="#263238"/>
<path d="M188.342 181.608C188.713 182.311 191.701 181.657 195.295 181.677C198.889 181.696 201.838 182.272 202.248 181.569C202.424 181.237 201.857 180.593 200.627 180.007C198.968 179.271 197.168 178.904 195.354 178.933C193.522 178.922 191.708 179.298 190.032 180.036C188.782 180.632 188.176 181.237 188.342 181.608Z" fill="#263238"/>
<path d="M261.631 205.358C262.021 205.172 277.079 200.182 277.138 215.728C277.197 231.275 261.582 228.13 261.514 227.681C261.445 227.232 261.631 205.358 261.631 205.358Z" fill="#FFBE9D"/>
<path d="M266.279 221.773C266.347 221.773 266.553 221.958 267.002 222.173C267.654 222.434 268.381 222.434 269.033 222.173C270.673 221.568 272.041 218.95 272.109 216.148C272.147 214.804 271.884 213.47 271.338 212.242C271.188 211.757 270.924 211.315 270.566 210.955C270.209 210.594 269.77 210.325 269.287 210.171C268.975 210.091 268.646 210.122 268.355 210.26C268.064 210.397 267.831 210.632 267.695 210.923C267.49 211.353 267.588 211.666 267.51 211.695C267.431 211.724 267.168 211.431 267.295 210.796C267.375 210.41 267.59 210.064 267.9 209.82C268.11 209.656 268.35 209.536 268.606 209.465C268.863 209.395 269.13 209.376 269.394 209.41C270.033 209.535 270.63 209.821 271.128 210.241C271.625 210.662 272.006 211.202 272.236 211.812C272.912 213.155 273.247 214.644 273.212 216.148C273.125 219.282 271.533 222.212 269.306 222.876C268.889 222.997 268.45 223.025 268.021 222.955C267.592 222.886 267.184 222.722 266.826 222.476C266.308 222.153 266.221 221.802 266.279 221.773Z" fill="#EB996E"/>
<path d="M283.213 180.983C280.176 175.387 279.668 168.825 278.125 162.653C276.582 156.482 272.051 148.64 266.143 146.287C260.919 143.054 253.907 143.211 249.356 146.785C248.556 138.67 243.243 133.895 235.451 131.531C227.658 129.168 214.944 129.94 207.307 132.703C201.38 134.832 195.589 139.441 188.431 146.267C185.422 149.139 182.653 152.252 180.15 155.574L172.523 176.461L177.982 187.77C178.304 188.541 178.636 189.303 179.046 190.065L183.47 213.628C184.046 207.271 184.447 185.084 184.964 178.727C189.762 178.766 194.518 177.834 198.947 175.988C203.375 174.142 207.385 171.42 210.735 167.985C214.358 164.255 217.268 159.528 222.014 157.39C228.127 154.646 235.197 157.077 241.447 159.509L241.183 159.255C244.427 160.905 247.325 163.163 249.718 165.905C247.832 178.448 248.664 191.25 252.159 203.443C252.686 205.269 254.171 209.058 255.919 209.81C259.356 211.284 260.42 207.769 262.588 205.962C264.19 204.625 266.494 204.537 268.994 204.634C270.606 200.816 272.363 194.342 273.877 188.678C275.961 189.412 278.19 189.643 280.381 189.352C279.769 187.731 279.16 186.103 278.555 184.469C279.36 185.111 280.292 185.577 281.289 185.836C281.792 185.956 282.32 185.919 282.801 185.73C283.283 185.542 283.696 185.211 283.984 184.782C284.599 183.551 283.847 182.155 283.213 180.983Z" fill="#263238"/>
<path d="M243.652 150.964C244.443 151.626 245.178 152.351 245.849 153.132C247.564 155.359 248.668 157.995 249.052 160.779C249.364 162.686 249.485 164.619 249.414 166.55C249.345 168.64 249.091 170.866 248.847 173.21C248.548 175.672 248.401 178.151 248.408 180.631C248.425 181.941 248.546 183.247 248.769 184.538C248.917 185.926 249.418 187.254 250.224 188.395C250.602 188.85 251.091 189.199 251.644 189.408C252.197 189.617 252.795 189.678 253.378 189.586C254.496 189.42 255.526 188.888 256.308 188.073C257.831 186.422 258.261 184.284 258.701 182.389L258.222 182.438C258.845 184.18 259.713 185.824 260.8 187.321C261.858 188.694 263.403 189.61 265.116 189.879C265.915 189.992 266.73 189.88 267.47 189.557C268.157 189.235 268.73 188.71 269.11 188.053C269.465 187.462 269.657 186.789 269.667 186.1C269.662 185.445 269.427 184.812 269.003 184.313L268.759 184.518C270.045 186.115 271.656 187.42 273.485 188.346C273.967 188.59 274.462 188.805 274.969 188.99C275.144 189.058 275.323 189.11 275.507 189.147C275.352 189.045 275.185 188.967 275.009 188.912C274.677 188.756 274.178 188.541 273.573 188.199C271.807 187.215 270.257 185.887 269.013 184.293L268.759 184.498C269.105 184.992 269.291 185.58 269.291 186.183C269.291 186.786 269.105 187.374 268.759 187.867C268.406 188.447 267.889 188.909 267.274 189.196C266.603 189.48 265.866 189.572 265.146 189.459C263.547 189.195 262.113 188.324 261.142 187.028C260.093 185.576 259.258 183.981 258.661 182.291L258.359 181.549L258.183 182.331C257.753 184.215 257.285 186.237 255.898 187.76C255.196 188.489 254.272 188.966 253.271 189.117C252.779 189.196 252.275 189.147 251.807 188.976C251.338 188.805 250.921 188.518 250.595 188.141C249.847 187.07 249.383 185.827 249.248 184.528C249.032 183.256 248.911 181.97 248.886 180.68C248.871 178.22 249.008 175.761 249.297 173.317C249.531 170.974 249.765 168.737 249.814 166.618C249.871 164.655 249.724 162.692 249.375 160.759C248.95 157.929 247.773 155.265 245.967 153.044C245.319 152.224 244.537 151.521 243.652 150.964Z" fill="#455A64"/>
<path d="M188.352 195.202C188.781 195.68 191.476 193.669 195.275 193.708C199.074 193.747 201.828 195.661 202.248 195.241C202.453 195.026 202.013 194.176 200.812 193.288C199.19 192.114 197.238 191.482 195.236 191.481C193.254 191.466 191.319 192.089 189.719 193.258C188.547 194.137 188.137 194.997 188.352 195.202Z" fill="#263238"/>
<path d="M190.628 202.555C190.65 203.356 190.985 204.116 191.559 204.674C192.133 205.232 192.903 205.544 193.704 205.544C194.095 205.561 194.485 205.499 194.852 205.362C195.219 205.226 195.555 205.017 195.84 204.749C196.125 204.48 196.353 204.157 196.511 203.799C196.669 203.441 196.754 203.054 196.76 202.663C196.74 201.863 196.408 201.103 195.835 200.545C195.262 199.987 194.494 199.674 193.694 199.675C193.302 199.656 192.91 199.717 192.542 199.853C192.174 199.989 191.837 200.197 191.551 200.466C191.265 200.735 191.036 201.058 190.877 201.417C190.719 201.776 190.634 202.163 190.628 202.555Z" fill="#263238"/>
<path d="M182.151 153.034C180.198 155.534 177.132 157.78 173.968 157.36C172.827 157.084 171.707 156.725 170.618 156.286C169.486 156.93 169.642 160.729 170.394 161.803C171.097 162.706 171.874 163.549 172.718 164.323C168.939 166.227 165.58 165.163 161.644 163.61C161.951 167.007 163.146 170.264 165.108 173.054C167.071 175.845 169.732 178.07 172.825 179.508C174.778 180.396 177.22 180.914 179.075 179.781C180.706 178.805 181.409 176.852 181.936 174.967C183.887 168.212 184.996 161.242 185.237 154.216L182.151 153.034Z" fill="#263238"/>
<path d="M215.793 228.707C216.058 228.217 216.45 227.807 216.927 227.518C217.405 227.23 217.95 227.074 218.508 227.067C219.562 227.067 220.461 226.969 221.232 227.701C221.964 228.406 222.461 229.32 222.655 230.318C222.849 231.316 222.731 232.349 222.316 233.277C221.855 234.185 221.072 234.887 220.12 235.249C219.169 235.61 218.117 235.603 217.17 235.23C215.324 234.381 214.592 229.625 215.871 228.043" fill="#EB996E"/>
<path d="M215.147 232.094C215.299 232.382 215.433 232.678 215.547 232.983C215.733 233.373 215.996 233.722 216.32 234.009C216.644 234.296 217.022 234.515 217.432 234.653C218.044 234.831 218.685 234.884 219.318 234.808C219.95 234.733 220.561 234.53 221.114 234.213C221.731 233.751 222.196 233.113 222.446 232.383C222.697 231.653 222.722 230.865 222.519 230.12C222.316 229.376 221.893 228.71 221.307 228.208C220.72 227.707 219.996 227.394 219.229 227.309C218.598 227.238 217.96 227.327 217.373 227.568C216.786 227.808 216.269 228.193 215.87 228.686C215.341 229.381 215.065 230.235 215.088 231.108C215.088 231.733 215.196 232.084 215.147 232.084C215.098 232.084 215.098 232.006 215.04 231.84C214.964 231.602 214.915 231.357 214.893 231.108C214.788 230.17 215.035 229.227 215.586 228.461C216.009 227.895 216.571 227.448 217.218 227.163C217.865 226.879 218.575 226.768 219.278 226.84C220.149 226.922 220.974 227.269 221.642 227.834C222.311 228.398 222.79 229.154 223.017 229.999C223.243 230.844 223.205 231.738 222.909 232.561C222.612 233.384 222.071 234.097 221.358 234.604C220.746 234.946 220.069 235.156 219.372 235.222C218.674 235.287 217.97 235.206 217.305 234.985C216.859 234.817 216.455 234.556 216.118 234.219C215.781 233.882 215.52 233.477 215.352 233.032C215.25 232.801 215.181 232.558 215.147 232.309C215.147 232.182 215.147 232.094 215.147 232.094Z" fill="#263238"/>
<path d="M243.828 150.858C243.191 149.785 242.416 148.8 241.524 147.928C239.009 145.638 235.796 144.262 232.403 144.022C230.078 143.857 227.742 144.132 225.518 144.832C222.966 145.644 220.545 146.822 218.331 148.328C213.595 151.463 209.406 156.141 204.826 160.877C202.605 163.201 200.202 165.343 197.639 167.283C195.241 169.102 192.571 170.532 189.729 171.521C184.849 173.081 179.618 173.166 174.69 171.765C171.381 170.855 168.289 169.287 165.599 167.156L164.368 166.121C164.017 165.818 163.763 165.515 163.538 165.291L163.04 164.763C162.933 164.646 162.874 164.578 162.884 164.568L163.079 164.724L163.607 165.213C163.841 165.427 164.114 165.72 164.466 166.013L165.696 166.99C168.403 169.033 171.481 170.532 174.758 171.404C179.618 172.733 184.76 172.615 189.553 171.062C192.36 170.082 194.996 168.668 197.365 166.873C199.898 164.939 202.278 162.814 204.484 160.515C209.044 155.828 213.273 151.092 218.097 147.928C220.352 146.405 222.82 145.223 225.421 144.422C227.698 143.723 230.087 143.461 232.462 143.651C235.917 143.93 239.172 145.388 241.68 147.782C242.342 148.435 242.922 149.166 243.408 149.959C243.545 150.223 243.662 150.428 243.75 150.594C243.838 150.76 243.838 150.848 243.828 150.858Z" fill="#455A64"/>
<path d="M198.722 271.479L207.335 269.77L260.615 266.479L271.972 269.575L270.478 297.23L244.805 313.607L219.903 313.109L204.24 298.851L200.773 284.702L198.722 271.479Z" fill="#FFBE9D"/>
<path d="M344.05 315.021C341.023 308.714 337.605 302.602 333.816 296.721C327.701 287.339 318.353 280.531 307.547 277.591L266.533 266.468C266.533 266.468 264.404 307.482 236.172 307.482C207.941 307.482 202.443 269.037 202.443 269.037L154.935 287.991C153.304 288.626 142.289 292.434 129.467 319.923C117.261 346.104 111.89 359.492 111.89 359.492L160.775 373.613L163.831 417.625L162.796 442.761L311.316 442.429L310.486 413.699L311.111 369.648L312.967 372.646L362.399 352.823C362.399 352.823 356.032 339.776 344.05 315.021Z" fill="#55B3F2"/>
<path d="M311.825 341.623C312.049 341.623 311.912 357.54 311.532 377.168C311.151 396.797 310.702 412.675 310.487 412.675C310.272 412.675 310.399 396.758 310.78 377.129C311.161 357.501 311.649 341.623 311.825 341.623Z" fill="#263238"/>
<path d="M153.372 332.597C153.621 333.116 153.805 333.664 153.919 334.228C154.212 335.293 154.613 336.845 155.081 338.759C156.009 342.607 157.161 347.939 158.235 353.876C159.31 359.813 160.071 365.223 160.54 369.139C160.774 371.092 160.95 372.694 161.038 373.797C161.122 374.366 161.142 374.942 161.097 375.516C160.903 374.974 160.778 374.409 160.726 373.836C160.53 372.576 160.286 371.033 159.993 369.217C159.388 365.311 158.519 359.94 157.454 354.013C156.39 348.085 155.325 342.753 154.525 338.886C154.163 337.08 153.861 335.546 153.607 334.296C153.465 333.741 153.387 333.171 153.372 332.597Z" fill="#263238"/>
<path d="M116.07 360.731L96.168 400.681C93.9481 405.142 92.9091 410.098 93.1506 415.075C93.5141 422.543 96.7366 429.586 102.15 434.743C107.564 439.901 114.754 442.778 122.232 442.779L179.3 439.469L181.8 413.435L138.374 402.956L154.828 371.844L116.07 360.731Z" fill="#FFBE9D"/>
<path d="M138.373 402.959C138.373 403.145 136.42 402.813 133.246 402.833C129.147 402.913 125.085 403.631 121.206 404.961C117.331 406.257 113.701 408.191 110.464 410.684C108.003 412.637 106.831 414.229 106.695 414.131C106.558 414.033 106.9 413.662 107.417 412.93C108.189 411.919 109.06 410.987 110.015 410.147C113.225 407.421 116.933 405.342 120.932 404.024C124.905 402.651 129.094 402.013 133.295 402.139C134.562 402.186 135.823 402.336 137.065 402.588C137.518 402.639 137.961 402.764 138.373 402.959Z" fill="#EB996E"/>
<path d="M155.522 371.534C155.347 372.595 155.018 373.624 154.545 374.59C153.611 376.978 152.518 379.301 151.274 381.543C150.039 383.793 148.652 385.956 147.124 388.017C146.55 388.92 145.845 389.733 145.034 390.429C144.849 390.293 147.72 386.377 150.59 381.162C153.461 375.948 155.307 371.455 155.522 371.534Z" fill="#EB996E"/>
<path d="M360.368 442.644H293.359V417.352L332.166 400.956L317.772 370.791L356.618 355.167L375.582 397.353C379.987 409.608 384.488 415.428 380.651 426.58C378.659 432.371 370.417 442.644 360.368 442.644Z" fill="#FFBE9D"/>
<path d="M170.628 411.924H181.799C181.799 411.924 207.004 402.813 212.189 403.682C216.857 404.463 233.956 415.82 237.305 418.066C237.676 418.32 237.959 418.681 238.116 419.101C238.443 419.991 238.413 420.973 238.032 421.841C237.652 422.709 236.95 423.397 236.075 423.759L235.723 423.906L235.87 424.414C236.071 425.074 236.16 425.764 236.133 426.455C236.096 426.979 235.891 427.477 235.55 427.877C235.208 428.277 234.748 428.557 234.236 428.676C233.724 428.795 233.187 428.747 232.705 428.538C232.222 428.33 231.818 427.973 231.553 427.519L232.198 428.662C232.459 429.129 232.581 429.661 232.55 430.195L232.491 431.24C232.458 431.807 232.254 432.35 231.905 432.798C231.556 433.246 231.079 433.578 230.538 433.749C230.027 433.915 229.479 433.93 228.96 433.793C228.44 433.657 227.971 433.374 227.608 432.978C225.44 430.595 220.773 425.82 217.589 425.293C214.159 424.873 210.703 424.697 207.248 424.765C206.542 424.77 205.853 424.987 205.272 425.387C204.69 425.787 204.242 426.353 203.986 427.011C205.871 427.148 218.966 433.974 223.605 436.415C224.322 436.775 224.943 437.303 225.412 437.954C225.881 438.605 226.186 439.361 226.3 440.155C226.466 441.601 225.733 443.085 222.862 442.45C216.71 441.015 205.627 435.917 205.627 435.917C205.627 435.917 199.904 434.286 196.203 436.894C190.988 440.575 188.606 441.923 184.133 440.438C181.401 439.534 178.78 438.322 176.321 436.825L167.532 435.946C167.532 435.946 159.232 415.117 170.628 411.924Z" fill="#FFBE9D"/>
<path d="M203.918 416.179C203.918 416.277 205.706 415.711 208.655 415.515C212.496 415.257 216.343 415.91 219.883 417.422C223.424 418.935 226.556 421.262 229.025 424.216C230.026 425.469 230.962 426.773 231.828 428.122C231.691 427.71 231.504 427.317 231.271 426.95C230.701 425.922 230.048 424.942 229.318 424.021C226.869 420.962 223.699 418.558 220.093 417.024C216.487 415.49 212.557 414.875 208.655 415.232C207.481 415.329 206.317 415.528 205.178 415.828C204.746 415.895 204.323 416.013 203.918 416.179Z" fill="#EB996E"/>
<path d="M206.584 410.057C208.187 409.574 209.843 409.285 211.515 409.197C215.56 409.179 219.527 410.303 222.96 412.44C226.371 414.625 229.477 417.251 232.198 420.252L234.737 422.937C235.031 423.293 235.358 423.62 235.714 423.914C235.466 423.534 235.189 423.175 234.884 422.84C234.327 422.166 233.507 421.199 232.462 420.037C229.779 416.941 226.664 414.248 223.214 412.039C219.707 409.849 215.63 408.744 211.496 408.865C210.251 408.924 209.019 409.151 207.834 409.539C207.501 409.639 207.175 409.76 206.857 409.901C206.682 409.979 206.574 410.037 206.584 410.057Z" fill="#EB996E"/>
<path d="M309.725 412.675H298.543C298.543 412.675 273.339 403.564 268.154 404.433C263.486 405.214 246.387 416.571 243.037 418.817C242.667 419.071 242.384 419.432 242.227 419.853C241.903 420.742 241.934 421.723 242.314 422.591C242.694 423.458 243.394 424.146 244.268 424.511L244.619 424.657L244.473 425.165C244.27 425.825 244.181 426.516 244.209 427.206C244.247 427.73 244.451 428.229 244.793 428.628C245.134 429.028 245.595 429.308 246.107 429.427C246.619 429.546 247.155 429.498 247.638 429.29C248.121 429.081 248.524 428.724 248.789 428.27L248.145 429.413C247.89 429.882 247.768 430.412 247.793 430.946L247.852 431.981C247.881 432.549 248.083 433.095 248.433 433.544C248.782 433.993 249.261 434.323 249.805 434.491C250.315 434.66 250.862 434.678 251.382 434.543C251.902 434.408 252.372 434.125 252.734 433.729C254.902 431.337 259.57 426.561 262.754 426.034C266.188 425.622 269.647 425.449 273.105 425.516C273.809 425.523 274.495 425.741 275.075 426.141C275.655 426.541 276.101 427.106 276.357 427.762C274.472 427.889 261.377 434.725 256.738 437.166C256.021 437.524 255.401 438.05 254.932 438.7C254.462 439.35 254.157 440.103 254.043 440.897C253.877 442.352 254.609 443.875 257.48 443.201C263.632 441.766 274.716 436.668 274.716 436.668C274.716 436.668 280.438 435.028 284.14 437.645C289.354 441.326 291.737 442.674 296.209 441.19C298.943 440.288 301.564 439.076 304.022 437.577L312.81 436.698C312.81 436.698 321.121 415.898 309.725 412.675Z" fill="#FFBE9D"/>
<path d="M276.425 416.962C276.425 417.059 274.638 416.493 271.689 416.307C267.841 416.042 263.986 416.693 260.439 418.205C256.891 419.718 253.752 422.049 251.279 425.008C249.326 427.264 248.555 428.914 248.477 428.914C248.617 428.507 248.804 428.117 249.033 427.752C249.603 426.724 250.256 425.744 250.986 424.823C253.436 421.764 256.605 419.36 260.211 417.826C263.817 416.292 267.747 415.676 271.65 416.034C272.823 416.133 273.985 416.329 275.126 416.62C275.57 416.687 276.005 416.801 276.425 416.962Z" fill="#EB996E"/>
<path d="M273.74 410.837C272.152 410.358 270.513 410.069 268.858 409.977C264.807 409.964 260.834 411.091 257.393 413.229C253.985 415.417 250.879 418.043 248.155 421.041L245.616 423.736C245.323 424.093 244.996 424.42 244.64 424.713C244.885 424.329 245.163 423.966 245.47 423.629C246.026 422.965 246.847 421.998 247.901 420.836C250.578 417.738 253.69 415.045 257.139 412.838C260.647 410.649 264.724 409.544 268.858 409.665C270.1 409.724 271.328 409.951 272.51 410.338C272.844 410.434 273.17 410.555 273.486 410.7C273.577 410.733 273.663 410.779 273.74 410.837Z" fill="#EB996E"/>
<path d="M362.096 402.713C362.038 402.801 360.583 401.736 357.946 400.516C357.292 400.223 356.569 399.9 355.759 399.627C354.948 399.354 354.099 399.08 353.181 398.816C349.165 397.755 344.978 397.512 340.867 398.104C339.89 398.27 339.031 398.397 338.21 398.621C337.441 398.791 336.681 399.003 335.935 399.256C333.181 400.154 331.609 401.043 331.56 400.955C331.897 400.694 332.264 400.474 332.654 400.301C333.082 400.048 333.53 399.829 333.992 399.647C334.587 399.37 335.196 399.125 335.818 398.914C336.569 398.637 337.335 398.402 338.113 398.211C338.998 397.977 339.894 397.788 340.798 397.645C344.968 396.988 349.23 397.231 353.298 398.358C354.226 398.65 355.114 398.895 355.905 399.236C356.656 399.519 357.39 399.845 358.102 400.213C358.776 400.516 359.333 400.867 359.841 401.189C360.274 401.433 360.691 401.704 361.091 402C361.451 402.2 361.788 402.439 362.096 402.713Z" fill="#EB996E"/>
<path d="M305.252 445.875H165.707C163.798 445.874 161.964 445.136 160.586 443.815C159.209 442.494 158.395 440.692 158.314 438.785L154.125 342.744C154.08 341.745 154.238 340.748 154.589 339.812C154.941 338.875 155.478 338.02 156.169 337.297C156.86 336.575 157.69 335.999 158.609 335.606C159.528 335.213 160.518 335.01 161.517 335.01H309.168C310.167 335.01 311.155 335.213 312.073 335.604C312.992 335.996 313.822 336.57 314.513 337.29C315.204 338.011 315.743 338.863 316.096 339.797C316.45 340.731 316.611 341.727 316.57 342.724L312.664 438.766C312.589 440.68 311.774 442.489 310.392 443.815C309.01 445.141 307.168 445.879 305.252 445.875Z" fill="#E0E0E0"/>
<path d="M305.252 445.875C305.704 445.846 306.153 445.793 306.6 445.719C307.905 445.471 309.118 444.87 310.105 443.981C310.91 443.266 311.549 442.385 311.979 441.398C312.409 440.412 312.619 439.344 312.595 438.268C312.693 435.709 312.807 432.763 312.937 429.43C313.465 416.13 314.217 396.892 315.154 373.114C315.388 367.164 315.636 360.943 315.896 354.452C316.023 351.21 316.16 347.9 316.287 344.531C316.287 343.691 316.384 342.822 316.355 342.002C316.304 341.17 316.109 340.354 315.779 339.59C315.116 338.025 313.914 336.75 312.39 335.996C311.625 335.612 310.799 335.364 309.949 335.264C309.109 335.195 308.201 335.264 307.312 335.264H267.939H165.579H162.181C161.081 335.202 159.981 335.368 158.949 335.752C157.931 336.146 157.017 336.766 156.276 337.567C155.535 338.367 154.986 339.326 154.671 340.371C154.52 340.89 154.422 341.424 154.378 341.963C154.378 342.5 154.378 343.047 154.378 343.613C154.427 344.726 154.466 345.839 154.515 346.953L154.808 353.603C155.186 362.444 155.563 371.141 155.941 379.696C156.683 396.804 157.396 413.298 158.079 429.02C158.167 430.973 158.245 432.926 158.333 434.879C158.333 435.856 158.411 436.832 158.46 437.809C158.446 438.752 158.565 439.692 158.812 440.602C159.362 442.387 160.584 443.889 162.22 444.791C163.021 445.231 163.9 445.513 164.808 445.621C165.696 445.719 166.653 445.67 167.581 445.68H189.27H228.194L284.55 445.758L299.871 445.807H303.856H305.213H303.856H299.871H284.55L228.194 445.885H189.27H167.62C166.644 445.885 165.765 445.885 164.788 445.826C163.324 445.647 161.943 445.048 160.812 444.102C159.681 443.156 158.847 441.903 158.411 440.494C158.152 439.54 158.027 438.554 158.04 437.565C157.992 436.588 157.953 435.612 157.904 434.635C157.826 432.682 157.741 430.729 157.65 428.776C156.956 413.054 156.234 396.551 155.482 379.452C155.111 370.897 154.73 362.2 154.339 353.359C154.242 351.152 154.154 348.935 154.056 346.709L153.91 343.369C153.88 342.803 153.88 342.236 153.91 341.67C153.952 341.091 154.053 340.519 154.212 339.961C154.549 338.843 155.137 337.816 155.93 336.96C156.724 336.104 157.703 335.44 158.792 335.02C159.884 334.613 161.047 334.433 162.21 334.492H165.608H267.968H307.342C308.24 334.492 309.109 334.492 310.027 334.541C310.925 334.644 311.798 334.905 312.605 335.312C314.22 336.113 315.492 337.469 316.189 339.131C316.535 339.94 316.74 340.802 316.795 341.679C316.795 342.568 316.795 343.388 316.726 344.238C316.589 347.617 316.453 350.927 316.316 354.169C316.043 360.679 315.782 366.9 315.535 372.831C314.558 396.599 313.728 415.798 313.162 429.137C313.019 432.464 312.892 435.394 312.781 437.926C312.795 439.019 312.572 440.102 312.127 441.1C311.682 442.098 311.026 442.988 310.203 443.707C309.195 444.596 307.962 445.19 306.639 445.426C306.316 445.481 305.99 445.513 305.662 445.523L305.252 445.875Z" fill="#263238"/>
<path d="M242.979 392.166C242.979 393.678 242.53 395.156 241.69 396.414C240.85 397.671 239.656 398.651 238.259 399.23C236.861 399.809 235.324 399.96 233.841 399.665C232.358 399.37 230.995 398.642 229.926 397.573C228.856 396.503 228.128 395.141 227.833 393.658C227.538 392.174 227.69 390.637 228.268 389.24C228.847 387.843 229.827 386.648 231.084 385.808C232.342 384.968 233.82 384.52 235.333 384.52C237.36 384.522 239.303 385.329 240.736 386.762C242.17 388.195 242.976 390.139 242.979 392.166Z" fill="white"/>
<path d="M441.606 180.843H300.029L300.751 280.029H316.22V302.958L337.166 280.029H442.328L441.606 180.843Z" fill="white"/>
<path d="M441.606 180.854C441.606 180.854 441.606 181.44 441.606 182.602C441.606 183.764 441.606 185.532 441.664 187.778C441.664 192.338 441.772 199.037 441.86 207.63C442.006 224.866 442.221 249.68 442.494 280.02V280.225H442.289L337.215 280.274L337.391 280.196L316.454 303.135L316.014 303.613V280.03L316.268 280.284H300.497V280.03C300.253 244.309 300.019 210.638 299.804 180.854V180.62H300.029L402.486 180.737L431.381 180.795H439.008H440.961H441.606H438.959H431.284L402.34 180.854L300.029 180.971L300.263 180.737C300.488 210.521 300.742 244.211 301.005 279.913L300.751 279.669H316.473V302.852L316.034 302.686L336.981 279.864L337.049 279.786H337.215H442.377L442.182 279.991C442.006 249.719 441.86 224.925 441.762 207.728C441.713 199.115 441.684 192.397 441.664 187.826C441.664 185.541 441.664 183.803 441.664 182.612C441.664 181.42 441.606 180.854 441.606 180.854Z" fill="#263238"/>
<path d="M440.884 194.838C440.884 194.955 409.518 195.062 370.828 195.062C332.138 195.062 300.752 194.955 300.752 194.838C300.752 194.72 332.118 194.613 370.828 194.613C409.537 194.613 440.884 194.711 440.884 194.838Z" fill="#263238"/>
<path d="M306.561 191.331C307.597 191.331 308.436 190.412 308.436 189.28C308.436 188.147 307.597 187.229 306.561 187.229C305.526 187.229 304.686 188.147 304.686 189.28C304.686 190.412 305.526 191.331 306.561 191.331Z" fill="#E0E0E0"/>
<path d="M312.109 191.331C313.145 191.331 313.984 190.412 313.984 189.28C313.984 188.147 313.145 187.229 312.109 187.229C311.074 187.229 310.234 188.147 310.234 189.28C310.234 190.412 311.074 191.331 312.109 191.331Z" fill="#E0E0E0"/>
<path d="M317.646 191.331C318.681 191.331 319.52 190.412 319.52 189.28C319.52 188.147 318.681 187.229 317.646 187.229C316.61 187.229 315.771 188.147 315.771 189.28C315.771 190.412 316.61 191.331 317.646 191.331Z" fill="#E0E0E0"/>
<path d="M440.532 198.647C447.974 198.647 454.008 192.613 454.008 185.17C454.008 177.728 447.974 171.694 440.532 171.694C433.089 171.694 427.056 177.728 427.056 185.17C427.056 192.613 433.089 198.647 440.532 198.647Z" fill="#55B3F2"/>
<path d="M445.785 181.839L443.865 179.919L435.275 188.509L437.195 190.429L445.785 181.839Z" fill="white"/>
<path d="M437.191 179.898L435.271 181.818L443.861 190.408L445.781 188.488L437.191 179.898Z" fill="white"/>
<path d="M174.514 20.577V117.556H263.085L282.225 132.36V117.556V113.757V20.577H174.514Z" fill="white"/>
<path d="M174.514 20.5769H176.467H182.209L204.074 20.5183L282.196 20.4109H282.411V20.6257C282.411 51.7281 282.411 88.4065 282.411 127.526V132.926L282.001 132.614L262.929 117.761L263.085 117.81H174.514H174.3V117.595C174.348 88.2991 174.378 64.0812 174.407 47.1189C174.407 38.6622 174.407 32.0316 174.466 27.5102C174.466 25.2642 174.466 23.5358 174.466 22.3639C174.466 21.1921 174.466 20.616 174.466 20.616C174.466 20.616 174.466 21.2409 174.466 22.4128C174.466 23.5846 174.466 25.3424 174.466 27.5981C174.466 32.1292 174.466 38.7794 174.514 47.2459C174.514 64.1789 174.583 88.3968 174.622 117.556L174.417 117.351H262.988H263.076L263.144 117.4L282.284 132.194L281.874 132.399V127.516C281.874 88.3968 281.874 51.7184 281.874 20.616L282.098 20.8406L204.093 20.7234L182.18 20.6746H176.389H174.895L174.514 20.5769Z" fill="#263238"/>
<path d="M281.63 38.9967C281.63 39.1529 257.881 39.2897 228.604 39.2897C199.328 39.2897 175.579 39.1529 175.579 38.9967C175.579 38.8404 199.318 38.7037 228.604 38.7037C257.891 38.7037 281.63 38.8307 281.63 38.9967Z" fill="#263238"/>
<path d="M186.536 31.7692C186.536 32.3001 186.378 32.8189 186.082 33.2597C185.787 33.7006 185.366 34.0434 184.875 34.2448C184.384 34.4461 183.844 34.4967 183.324 34.3903C182.804 34.2838 182.327 34.0251 181.955 33.647C181.582 33.2689 181.33 32.7885 181.231 32.2669C181.133 31.7453 181.191 31.2061 181.4 30.7179C181.608 30.2298 181.957 29.8146 182.402 29.5254C182.848 29.2361 183.369 29.0858 183.899 29.0935C184.602 29.1038 185.273 29.3902 185.766 29.8909C186.26 30.3916 186.536 31.0663 186.536 31.7692Z" fill="#E0E0E0"/>
<path d="M194.427 31.769C194.427 32.2986 194.269 32.8163 193.975 33.2565C193.681 33.6967 193.262 34.0397 192.773 34.2419C192.283 34.4441 191.745 34.4965 191.225 34.3925C190.706 34.2885 190.229 34.0327 189.855 33.6575C189.482 33.2823 189.228 32.8046 189.125 32.285C189.023 31.7653 189.078 31.227 189.282 30.7382C189.486 30.2495 189.83 29.8323 190.271 29.5395C190.713 29.2466 191.231 29.0913 191.761 29.0933C192.112 29.0933 192.459 29.1626 192.783 29.2971C193.107 29.4317 193.402 29.629 193.649 29.8776C193.897 30.1261 194.093 30.4212 194.226 30.7458C194.36 31.0703 194.428 31.418 194.427 31.769Z" fill="#E0E0E0"/>
<path d="M202.326 31.7689C202.326 32.2981 202.169 32.8155 201.875 33.2555C201.581 33.6955 201.163 34.0384 200.674 34.241C200.185 34.4435 199.647 34.4965 199.128 34.3932C198.609 34.29 198.132 34.0351 197.758 33.6609C197.384 33.2867 197.129 32.81 197.026 32.2909C196.923 31.7719 196.976 31.2339 197.178 30.745C197.381 30.2561 197.724 29.8382 198.164 29.5442C198.604 29.2502 199.121 29.0933 199.65 29.0933C200.36 29.0933 201.04 29.3752 201.542 29.877C202.044 30.3787 202.326 31.0593 202.326 31.7689Z" fill="#E0E0E0"/>
<path d="M262.353 74.2187C262.507 80.1525 260.898 85.9987 257.729 91.0177C254.56 96.0366 249.973 100.003 244.549 102.414C239.125 104.825 233.108 105.572 227.259 104.562C221.409 103.552 215.991 100.83 211.69 96.739C207.389 92.6484 204.398 87.3738 203.096 81.5826C201.793 75.7915 202.238 69.7442 204.374 64.2061C206.51 58.668 210.241 53.8879 215.095 50.471C219.949 47.0541 225.707 45.1539 231.641 45.0108C239.587 44.8114 247.286 47.7767 253.046 53.2542C258.805 58.7318 262.153 66.2729 262.353 74.2187Z" fill="#55B3F2"/>
<path d="M255.186 74.3927C255.305 78.9155 254.079 83.3717 251.664 87.1977C249.249 91.0237 245.754 94.0475 241.62 95.8866C237.486 97.7256 232.9 98.2973 228.441 97.5293C223.983 96.7612 219.852 94.688 216.572 91.5719C213.292 88.4557 211.01 84.4367 210.014 80.0233C209.018 75.6098 209.354 71.0002 210.979 66.7777C212.604 62.5552 215.445 58.9094 219.142 56.3017C222.839 53.694 227.227 52.2414 231.75 52.1278C234.751 52.0473 237.739 52.5597 240.543 53.6357C243.346 54.7116 245.91 56.3301 248.087 58.3982C250.264 60.4664 252.012 62.9437 253.23 65.6883C254.448 68.4329 255.113 71.3908 255.186 74.3927Z" fill="#55B3F2"/>
<g opacity="0.3">
<path d="M255.186 73.673C254.865 72.788 254.639 71.8714 254.512 70.9387C253.939 68.4943 252.994 66.1525 251.709 63.9956C250.823 62.5255 249.775 61.1595 248.584 59.9235C247.221 58.5051 245.678 57.2708 243.995 56.2517C243.092 55.6986 242.149 55.2154 241.173 54.8065C240.158 54.3641 239.11 54.0049 238.038 53.7323C236.936 53.4416 235.813 53.2359 234.679 53.1171C233.507 53.0078 232.329 52.9816 231.153 53.0389C229.975 53.1102 228.803 53.2669 227.648 53.5077C225.445 53.9818 223.328 54.7885 221.369 55.9002C220.446 56.4189 219.561 57.0031 218.722 57.6482C217.166 58.8508 215.771 60.249 214.572 61.8082C213.53 63.1721 212.639 64.6456 211.916 66.2025C210.872 68.4888 210.19 70.9233 209.894 73.4191C209.871 74.3568 209.75 75.2896 209.533 76.2022C209.231 75.2906 209.125 74.3257 209.221 73.3703C209.257 70.7438 209.783 68.1473 210.773 65.7143C211.459 64.0253 212.341 62.4226 213.4 60.9391C214.633 59.2362 216.088 57.7058 217.726 56.3884C218.611 55.6642 219.551 55.0112 220.539 54.4354C221.563 53.8312 222.634 53.3088 223.742 52.8729C224.89 52.4195 226.072 52.0571 227.277 51.789C228.522 51.5217 229.785 51.3487 231.056 51.2714C232.323 51.2107 233.592 51.2434 234.854 51.3691C236.082 51.4999 237.296 51.7285 238.487 52.0526C239.638 52.3836 240.761 52.8048 241.846 53.3124C242.891 53.767 243.897 54.3059 244.854 54.9236C248.188 57.0322 250.925 59.9607 252.803 63.4292C254.045 65.7259 254.853 68.2319 255.186 70.8215C255.389 71.7612 255.389 72.7333 255.186 73.673Z" fill="black"/>
</g>
<g opacity="0.3">
<path d="M235.274 88.5145L235.42 92.4889L231.865 92.6257L231.719 88.7195C228.558 88.7409 225.454 87.8711 222.764 86.2099L224.551 81.8057C226.648 83.1494 229.057 83.9266 231.543 84.0615L231.319 78.1242C227.334 77.3235 222.872 76.1712 222.676 71.0932C222.54 67.3238 225.147 63.9841 230.733 63.1345L230.586 59.2284L234.141 59.0917L234.287 62.9978C236.834 63.0437 239.334 63.693 241.582 64.8923L239.98 69.3355C238.272 68.4274 236.4 67.8696 234.473 67.6949L234.697 73.7298C238.682 74.5013 243.066 75.6829 243.262 80.6632C243.398 84.3252 240.82 87.6258 235.274 88.5145ZM231.114 72.89L230.918 67.8511C229.053 68.3492 228.35 69.4038 228.389 70.5756C228.428 71.7475 229.532 72.5092 231.114 72.9388V72.89ZM237.559 81.2198C237.51 79.9796 236.455 79.3449 234.903 78.8664L235.088 83.749C236.856 83.3584 237.607 82.4112 237.607 81.2686L237.559 81.2198Z" fill="black"/>
</g>
<path d="M255.635 73.9543C255.635 73.9543 255.635 73.8273 255.635 73.5734C255.635 73.3195 255.576 72.9387 255.527 72.4699L255.449 71.6594C255.449 71.3665 255.342 71.0442 255.273 70.6829C255.15 69.8762 254.967 69.0798 254.727 68.3002C254.124 66.1453 253.199 64.0941 251.983 62.2164C250.22 59.4583 247.896 57.1029 245.162 55.3041C242.427 53.5053 239.344 52.3035 236.114 51.7773C232.043 51.1325 227.875 51.5807 224.034 53.0761C222.994 53.4746 221.983 53.9444 221.007 54.4823C220.039 55.0404 219.112 55.6669 218.234 56.3572C217.328 57.0574 216.47 57.8176 215.665 58.6325C214.878 59.4948 214.144 60.4047 213.468 61.357C212.082 63.3128 211.02 65.4792 210.324 67.7728C208.849 72.5213 208.973 77.6223 210.675 82.2938C211.483 84.5509 212.647 86.6642 214.123 88.5533C214.84 89.472 215.616 90.3429 216.447 91.1607C217.29 91.9344 218.18 92.6552 219.113 93.3188C220.917 94.6128 222.909 95.6207 225.021 96.307C228.929 97.6149 233.113 97.8642 237.149 97.0296C240.662 96.2952 243.953 94.7466 246.758 92.5083C249.079 90.6709 251.028 88.4071 252.5 85.8386C253.621 83.9192 254.448 81.842 254.951 79.6767C255.154 78.8845 255.298 78.0783 255.381 77.2647C255.43 76.9131 255.488 76.5909 255.518 76.2882C255.547 75.9854 255.518 75.712 255.518 75.4679C255.518 75.0089 255.518 74.6378 255.576 74.3644C255.57 74.2408 255.57 74.1169 255.576 73.9933C255.591 74.1166 255.591 74.2411 255.576 74.3644V75.4776C255.576 75.7218 255.576 75.9952 255.576 76.2979C255.576 76.6006 255.508 76.9229 255.469 77.2745C255.435 78.0812 255.34 78.8842 255.186 79.6767C254.715 81.8895 253.909 84.0171 252.793 85.9851C250.122 90.7397 245.876 94.4138 240.787 96.3745C235.698 98.3353 230.084 98.4599 224.913 96.7269C223.852 96.3754 222.814 95.9546 221.808 95.4672C220.789 94.9478 219.81 94.3538 218.878 93.6899C217.919 93.0223 217.006 92.2915 216.144 91.5025C215.295 90.6674 214.502 89.7768 213.771 88.8365C212.253 86.9109 211.059 84.7504 210.236 82.4403C208.495 77.6649 208.371 72.4495 209.884 67.5971C210.595 65.2521 211.683 63.0389 213.107 61.0446C213.793 60.0712 214.543 59.1447 215.353 58.2712C216.176 57.4455 217.05 56.6725 217.97 55.9568C218.872 55.2422 219.821 54.5897 220.812 54.0038C221.791 53.4657 222.805 52.9958 223.849 52.5976C227.759 51.1055 231.994 50.6775 236.124 51.3574C239.409 51.9043 242.541 53.1452 245.309 54.9974C248.077 56.8497 250.419 59.2707 252.178 62.0992C253.387 64.01 254.296 66.0946 254.873 68.2806C255.099 69.0718 255.268 69.8778 255.381 70.6927C255.43 71.0442 255.498 71.3665 255.527 71.6692C255.557 71.9719 255.527 72.2356 255.527 72.4797C255.527 72.9484 255.547 73.3195 255.586 73.5929C255.613 73.7116 255.63 73.8326 255.635 73.9543Z" fill="#263238"/>
<path d="M291.919 30.8656C297.601 25.1834 297.601 15.9707 291.919 10.2884C286.237 4.60619 277.024 4.6062 271.342 10.2884C265.659 15.9707 265.659 25.1834 271.342 30.8656C277.024 36.5479 286.237 36.5479 291.919 30.8656Z" fill="#55B3F2"/>
<path d="M287.299 16.9794L285.228 14.9078L275.954 24.1814L278.026 26.2529L287.299 16.9794Z" fill="white"/>
<path d="M278.023 14.8983L275.952 16.9698L285.225 26.2434L287.297 24.1719L278.023 14.8983Z" fill="white"/>
<path d="M147.329 254.739H147.232V136.98H0.26416V255.061H128.189L147.329 274.211V254.739Z" fill="white"/>
<path d="M147.329 254.739C147.329 254.739 147.329 255.159 147.329 255.999C147.329 256.839 147.329 258.089 147.329 259.729C147.329 263.03 147.329 267.903 147.329 274.211V274.387L147.202 274.26L128.033 255.139H128.111L0.185541 255.218H0V255.032C0 222.963 0 187.73 0 150.827V136.784H0.195304H147.173H147.339V136.941C147.339 172.545 147.28 201.909 147.27 222.416C147.27 232.67 147.27 240.706 147.221 246.194C147.221 248.939 147.221 251.077 147.221 252.483C147.221 253.196 147.221 253.743 147.221 254.114C147.221 254.485 147.221 254.69 147.221 254.7C147.211 254.505 147.211 254.309 147.221 254.114C147.221 253.743 147.221 253.196 147.221 252.483C147.221 251.048 147.221 248.939 147.221 246.194C147.221 240.706 147.221 232.67 147.173 222.416C147.173 201.909 147.173 172.545 147.104 136.941L147.27 137.107H0.292958L0.498029 136.901V150.778C0.498029 187.681 0.498029 222.914 0.498029 254.983L0.302723 254.798L128.228 254.876L147.348 274.045L147.221 274.104C147.309 261.672 147.329 255.266 147.329 254.739Z" fill="#263238"/>
<path d="M147.231 150.116C147.231 150.233 114.332 150.321 73.7475 150.321C33.163 150.321 0.254028 150.233 0.254028 150.116C0.254028 149.999 33.1533 149.911 73.7475 149.911C114.342 149.911 147.231 149.989 147.231 150.116Z" fill="#263238"/>
<path d="M8.78952 143.737C8.79145 144.104 8.68403 144.465 8.4809 144.771C8.27777 145.078 7.9881 145.317 7.64867 145.459C7.30924 145.6 6.93538 145.638 6.57456 145.567C6.21374 145.495 5.88224 145.318 5.62217 145.058C5.3621 144.798 5.18519 144.467 5.11391 144.106C5.04263 143.745 5.0802 143.371 5.22184 143.032C5.36348 142.692 5.6028 142.403 5.90941 142.2C6.21603 141.996 6.57609 141.889 6.94388 141.891C7.43258 141.894 7.90054 142.089 8.24611 142.434C8.59168 142.78 8.78695 143.248 8.78952 143.737Z" fill="#E0E0E0"/>
<path d="M14.2679 143.737C14.2698 144.104 14.1627 144.464 13.96 144.77C13.7573 145.076 13.4682 145.316 13.1293 145.458C12.7905 145.6 12.4171 145.638 12.0566 145.567C11.696 145.497 11.3645 145.321 11.104 145.062C10.8436 144.803 10.6659 144.472 10.5935 144.112C10.5211 143.752 10.5573 143.378 10.6974 143.039C10.8376 142.699 11.0754 142.409 11.3807 142.204C11.686 142 12.0451 141.891 12.4125 141.891C12.9029 141.891 13.3734 142.085 13.721 142.431C14.0687 142.777 14.2653 143.246 14.2679 143.737Z" fill="#E0E0E0"/>
<path d="M17.8892 145.593C18.9139 145.593 19.7446 144.763 19.7446 143.738C19.7446 142.713 18.9139 141.883 17.8892 141.883C16.8645 141.883 16.0338 142.713 16.0338 143.738C16.0338 144.763 16.8645 145.593 17.8892 145.593Z" fill="#E0E0E0"/>
<path d="M147.329 154.597C155.009 154.597 161.235 148.372 161.235 140.692C161.235 133.012 155.009 126.786 147.329 126.786C139.649 126.786 133.423 133.012 133.423 140.692C133.423 148.372 139.649 154.597 147.329 154.597Z" fill="#55B3F2"/>
<path d="M152.757 137.242L150.782 135.267L141.916 144.133L143.89 146.108L152.757 137.242Z" fill="white"/>
<path d="M143.879 135.272L141.904 137.247L150.77 146.113L152.745 144.138L143.879 135.272Z" fill="white"/>
<path d="M54.7891 413.258C56.1614 415.209 58.7889 414.526 59.9921 413.336C61.1953 412.146 61.7026 410.429 62.1578 408.783C63.2049 405.05 64.252 401.128 63.4261 397.343C63.2284 396.194 62.715 395.122 61.9432 394.247C61.5531 393.815 61.0566 393.493 60.5031 393.313C59.9497 393.133 59.3586 393.1 58.7889 393.22C57.4882 393.584 56.6557 394.891 56.0703 396.127C54.3467 399.788 53.4581 403.787 53.4688 407.834C53.4688 409.713 53.716 411.69 54.7696 413.232" fill="#008DEB"/>
<g opacity="0.2">
<path d="M54.7891 413.258C56.1614 415.209 58.7889 414.526 59.9921 413.336C61.1953 412.146 61.7026 410.429 62.1578 408.783C63.2049 405.05 64.252 401.128 63.4261 397.343C63.2284 396.194 62.715 395.122 61.9432 394.247C61.5531 393.815 61.0566 393.493 60.5031 393.313C59.9497 393.133 59.3586 393.1 58.7889 393.22C57.4882 393.584 56.6557 394.891 56.0703 396.127C54.3467 399.788 53.4581 403.787 53.4688 407.834C53.4688 409.713 53.716 411.69 54.7696 413.232" fill="black"/>
</g>
<path d="M59.9517 423.014C62.2132 421.934 64.7605 421.603 67.2228 422.071C68.5687 422.18 69.8393 422.736 70.8324 423.651C71.7364 424.633 71.9185 426.376 70.8974 427.235C70.2352 427.691 69.4351 427.902 68.6341 427.833C66.683 427.833 64.5693 427.502 63.0409 428.672C62.1694 429.323 61.5971 430.441 60.55 430.773C60.0263 430.897 59.4765 430.848 58.9829 430.633C58.4893 430.419 58.0785 430.05 57.8119 429.583C57.3037 428.621 57.1849 427.501 57.4803 426.454C57.5982 425.729 57.8828 425.041 58.3116 424.444C58.7404 423.847 59.3018 423.357 59.9517 423.014Z" fill="#008DEB"/>
<path d="M51.1075 416.062C51.7999 415.146 52.2573 414.074 52.4399 412.94C52.6224 411.807 52.5245 410.645 52.1546 409.558C51.3894 407.389 50.0388 405.473 48.2523 404.024C46.2316 402.258 43.8884 400.9 41.3519 400.024C40.3695 399.639 39.3163 399.469 38.2626 399.523C37.7318 399.556 37.217 399.718 36.7634 399.996C36.3099 400.274 35.9314 400.658 35.6612 401.117C34.9523 402.495 35.6611 404.16 36.4156 405.52C37.7517 407.914 39.2739 410.199 40.9682 412.355C42.3274 414.085 43.8948 415.795 45.9565 416.563C48.0182 417.33 50.1644 417.213 51.244 415.789" fill="#008DEB"/>
<path d="M54.9385 442.428C55.0091 442.138 55.0483 441.841 55.0555 441.543C55.114 440.893 55.1856 440.106 55.2701 439.15C55.3796 437.967 55.5511 436.79 55.784 435.625C56.0867 434.209 56.5021 432.819 57.0262 431.469C57.5407 430.118 58.2459 428.848 59.1203 427.697C59.8284 426.758 60.7372 425.989 61.7804 425.447C62.4879 425.089 63.2473 424.846 64.0307 424.725C64.3247 424.71 64.6165 424.666 64.9021 424.595C64.6082 424.562 64.3116 424.562 64.0176 424.595C63.1995 424.665 62.4013 424.885 61.6633 425.245C60.5652 425.77 59.6053 426.546 58.8602 427.508C57.9503 428.678 57.2183 429.975 56.688 431.358C56.1564 432.73 55.743 434.144 55.4523 435.586C55.2363 436.764 55.0907 437.954 55.0165 439.15C54.945 440.171 54.9255 440.997 54.9125 441.563C54.891 441.851 54.8997 442.141 54.9385 442.428Z" fill="#263238"/>
<path d="M55.0881 440.58C55.1049 440.444 55.1049 440.307 55.0881 440.171C55.0881 439.865 55.0881 439.481 55.0881 439.006C55.0881 437.992 55.0881 436.529 55.0881 434.721C55.1532 431.104 55.4263 426.11 55.9857 420.62C56.545 415.131 57.2864 410.215 58.0148 406.644C58.1839 405.753 58.3465 404.953 58.5091 404.251C58.6716 403.548 58.7888 402.95 58.9123 402.456C59.0359 401.961 59.1074 401.617 59.179 401.317C59.2285 401.309 59.2729 401.281 59.3035 401.241C59.334 401.201 59.3485 401.151 59.344 401.101C59.3395 401.051 59.3164 401.004 59.2793 400.97C59.2421 400.936 59.1936 400.917 59.1432 400.917C59.0928 400.917 59.0443 400.936 59.0071 400.97C58.97 401.004 58.9469 401.051 58.9424 401.101C58.9379 401.151 58.9524 401.201 58.9829 401.241C59.0134 401.281 59.0579 401.309 59.1074 401.317C59.0164 401.61 58.9123 401.968 58.7757 402.436C58.6392 402.904 58.483 403.522 58.3074 404.225C58.1318 404.927 57.9498 405.72 57.7612 406.611C56.8002 411.236 56.0859 415.907 55.6214 420.607C55.0621 426.11 54.828 431.111 54.8345 434.74C54.8345 436.555 54.88 437.992 54.932 439.032C54.932 439.501 54.9906 439.891 55.0101 440.197C55.0232 440.327 55.0493 440.455 55.0881 440.58Z" fill="#263238"/>
<path d="M55.0351 430.902C55.0679 430.497 55.0679 430.09 55.0351 429.685C54.9831 428.905 54.866 427.773 54.6319 426.388C53.9989 422.791 52.9332 419.284 51.458 415.943C50.0387 412.555 48.0132 409.454 45.4811 406.792C45.045 406.328 44.5778 405.893 44.0828 405.492C43.8682 405.31 43.6796 405.134 43.491 404.991L42.9447 404.627C42.6199 404.383 42.2763 404.165 41.9171 403.976C43.1046 404.896 44.2341 405.889 45.299 406.948C47.7551 409.628 49.7347 412.707 51.1524 416.054C51.9625 417.879 52.6513 419.756 53.2141 421.673C53.6885 423.237 54.0836 424.823 54.3977 426.427C54.6579 427.793 54.814 428.911 54.905 429.679C54.9194 430.089 54.9629 430.498 55.0351 430.902Z" fill="#263238"/>
<path d="M93.5992 23.7861L101.967 31.0123L56.816 83.2976C56.3786 83.8041 55.7579 84.1162 55.0904 84.1651C54.423 84.2139 53.7634 83.9956 53.2569 83.5582L48.6988 79.622C48.1922 79.1846 47.8802 78.5639 47.8313 77.8964C47.7825 77.229 48.0008 76.5694 48.4382 76.0629L93.5894 23.7776L93.5992 23.7861Z" fill="#E0E0E0"/>
<path d="M85.7241 32.9456L94.0934 40.1704L61.6584 77.7435C61.2211 78.2501 60.6004 78.5623 59.9329 78.6113C59.2655 78.6602 58.6059 78.4421 58.0993 78.0047L53.5405 74.0693C53.0339 73.632 52.7217 73.0114 52.6727 72.3439C52.6238 71.6764 52.8419 71.0168 53.2793 70.5102L85.7142 32.9371L85.7241 32.9456Z" fill="#008DEB"/>
<path d="M97.4364 36.3112L91.8536 31.4918L70.4046 56.3387L75.9874 61.1581L97.4364 36.3112Z" fill="white"/>
<path d="M53.3017 83.5469C53.6849 83.8413 54.137 84.0329 54.615 84.1035C55.1958 84.1768 55.7839 84.0447 56.2777 83.7302C56.5809 83.5162 56.8494 83.2568 57.0737 82.961C57.3357 82.6531 57.6104 82.3224 57.9059 81.981C60.2837 79.2129 63.7125 75.2071 67.9816 70.2333C76.5408 60.2751 88.4727 46.451 101.878 30.888L101.896 31.1218L95.4317 25.5481L93.5233 23.8978L93.7628 23.8829C79.3943 40.4868 66.4693 55.4318 57.122 66.2382C54.7855 68.9326 52.671 71.3636 50.8146 73.5069C50.3529 74.0385 49.9007 74.553 49.4726 75.0512C49.2601 75.2975 49.0357 75.5519 48.8384 75.7843C48.6271 76.0025 48.4383 76.2414 48.275 76.4974C47.9962 76.9905 47.8933 77.5638 47.9832 78.1231C48.0698 78.6308 48.3137 79.0986 48.6804 79.4602L52.1172 82.4809L53.0089 83.2711C53.2073 83.4493 53.3017 83.5469 53.3017 83.5469L52.9874 83.2963L52.074 82.5313L48.5917 79.5522C48.1759 79.1545 47.9038 78.6302 47.8177 78.0614C47.7317 77.4926 47.8366 76.9113 48.1161 76.4085C48.2818 76.139 48.4751 75.8875 48.6929 75.6581C48.8934 75.42 49.1185 75.151 49.3183 74.9275C49.7496 74.4236 50.1809 73.9197 50.6521 73.3711C52.4972 71.2215 54.5978 68.7753 56.9261 66.0689C66.2507 55.2497 79.1448 40.28 93.4856 23.6456L93.5651 23.5038L93.691 23.6116L95.6051 25.2651L102.066 30.8444L102.192 30.9523L102.113 31.0941C88.6679 46.6349 76.731 60.4412 68.1296 70.3684L57.9815 82.0457C57.6771 82.3895 57.3999 82.7114 57.1323 83.0162C56.899 83.3191 56.6182 83.5822 56.3008 83.7954C55.796 84.1142 55.195 84.2448 54.6034 84.1641C54.2414 84.1111 53.8956 83.9785 53.5909 83.7759C53.4871 83.7094 53.3902 83.6327 53.3017 83.5469Z" fill="#E0E0E0"/>
<path d="M103.23 12.9612L111.471 20.0755C111.732 20.3009 111.893 20.6208 111.919 20.9649C111.944 21.309 111.831 21.6489 111.606 21.9101L100.922 34.2867L90.7015 25.464L101.377 13.0972C101.489 12.9651 101.626 12.8566 101.78 12.7781C101.934 12.6996 102.102 12.6526 102.275 12.64C102.448 12.6273 102.621 12.6492 102.785 12.7044C102.949 12.7595 103.1 12.8468 103.23 12.9612Z" fill="#55B3F2"/>
<path d="M101.934 32.9432C101.889 33.0226 99.5282 31.0891 96.6934 28.6441C93.8585 26.1991 91.6161 24.1605 91.6776 24.0905C91.7391 24.0206 94.0831 25.9447 96.9179 28.3897C99.7528 30.8347 101.99 32.8701 101.934 32.9432Z" fill="#E0E0E0"/>
<path d="M92.7318 24.8183C92.6467 24.7707 94.8695 22.0797 97.6652 18.8449C100.461 15.6102 102.786 13.0289 102.856 13.0904C102.926 13.1519 100.713 15.8258 97.9228 19.0638C95.1328 22.3017 92.8017 24.8798 92.7318 24.8183Z" fill="#E0E0E0"/>
<path d="M94.102 26.0066C94.0226 25.9621 96.2397 23.268 99.0354 20.0332C101.831 16.7985 104.156 14.2171 104.226 14.2787C104.296 14.3402 102.089 17.0173 99.293 20.2521C96.4973 23.4868 94.1549 26.0586 94.102 26.0066Z" fill="#E0E0E0"/>
<path d="M95.5209 27.2237C95.4414 27.1792 97.6553 24.4908 100.454 21.2503C103.253 18.0099 105.572 15.4399 105.642 15.5014C105.712 15.563 103.507 18.2344 100.709 21.4748C97.9097 24.7153 95.5908 27.2852 95.5209 27.2237Z" fill="#E0E0E0"/>
<path d="M96.8922 28.4093C96.8128 28.3649 99.0324 25.6796 101.826 22.436C104.619 19.1924 106.943 16.6256 107.019 16.6902C107.095 16.7549 104.879 19.42 102.086 22.6636C99.2925 25.9073 96.9678 28.474 96.8922 28.4093Z" fill="#E0E0E0"/>
<path d="M98.3069 29.6363C98.2275 29.5918 100.45 26.9009 103.24 23.6629C106.03 20.425 108.361 17.8469 108.431 17.9084C108.501 17.9699 106.294 20.647 103.498 23.8818C100.702 27.1165 98.3609 29.7262 98.3069 29.6363Z" fill="#E0E0E0"/>
<path d="M99.6855 30.822C99.6061 30.7775 101.823 28.0834 104.619 24.8487C107.415 21.6139 109.74 19.0326 109.81 19.0941C109.88 19.1556 107.672 21.8327 104.876 25.0675C102.081 28.3022 99.7554 30.8836 99.6855 30.822Z" fill="#E0E0E0"/>
<path d="M101.101 32.0481C101.021 32.0036 103.238 29.3095 106.034 26.0747C108.83 22.84 111.155 20.2587 111.225 20.3202C111.295 20.3817 109.09 23.0531 106.292 26.2936C103.493 29.534 101.196 32.1167 101.101 32.0481Z" fill="#E0E0E0"/>
<path d="M98.6049 63.1773L106.561 66.7183L84.6592 115.928C84.3871 116.54 83.8832 117.018 83.2584 117.258C82.6336 117.498 81.9391 117.48 81.3277 117.208L77.9765 115.716C77.3651 115.444 76.8868 114.94 76.6469 114.315C76.407 113.691 76.425 112.996 76.6972 112.385L98.599 63.1747L98.6049 63.1773Z" fill="#E0E0E0"/>
<path d="M94.7107 71.9194L102.667 75.4604L86.9927 110.677C86.7206 111.289 86.2167 111.767 85.5919 112.007C84.9671 112.247 84.2727 112.229 83.6612 111.957L80.3101 110.465C79.6986 110.193 79.2203 109.689 78.9804 109.064C78.7405 108.44 78.7586 107.745 79.0307 107.134L94.7047 71.9167L94.7107 71.9194Z" fill="#008DEB"/>
<path d="M104.302 71.7848L98.9958 69.4232L88.4866 93.0359L93.7926 95.3974L104.302 71.7848Z" fill="white"/>
<path d="M81.3252 117.215C81.6844 117.345 82.0647 117.406 82.4465 117.396C82.9059 117.371 83.3495 117.22 83.7278 116.958C83.9716 116.794 84.1835 116.587 84.3534 116.347C84.532 116.063 84.6808 115.762 84.7974 115.447C85.9702 112.795 87.6719 108.984 89.7413 104.225C93.9585 94.712 99.8139 81.5025 106.398 66.6588L106.484 66.8783L100.834 64.3623L98.5292 63.3398L98.7487 63.254C91.7757 78.8715 85.512 92.9033 80.9799 103.045C79.848 105.571 78.8206 107.858 77.9084 109.86C77.4653 110.864 77.0224 111.801 76.6651 112.652C76.535 113.049 76.5083 113.474 76.5873 113.884C76.6663 114.295 76.8486 114.679 77.1169 115C77.5988 115.475 78.1837 115.833 78.8264 116.047L80.1919 116.67L81.0295 117.064L81.3075 117.22L81.0129 117.107L80.1594 116.741L78.7781 116.146L77.8995 115.758C77.5577 115.606 77.2541 115.38 77.0104 115.097C76.7221 114.76 76.5245 114.356 76.4364 113.921C76.3482 113.487 76.3724 113.038 76.5067 112.615C76.8685 111.73 77.2899 110.818 77.7337 109.799C78.6231 107.785 79.6335 105.489 80.7484 102.952C85.2546 92.8039 91.49 78.7562 98.4232 63.1165L98.5058 62.9689L98.6534 63.0516L100.958 64.074L106.608 66.59L106.756 66.6726L106.673 66.8202C100.046 81.6473 94.1533 94.8434 89.9134 104.343C87.7815 109.068 86.0653 112.878 84.8755 115.521C84.7482 115.84 84.5915 116.147 84.4074 116.437C84.1745 116.749 83.8744 117.005 83.5293 117.186C83.1841 117.367 82.8027 117.468 82.4133 117.482C82.1236 117.491 81.8347 117.448 81.5603 117.354C81.4789 117.313 81.4003 117.267 81.3252 117.215Z" fill="#E0E0E0"/>
<path d="M103.602 52.984L110.928 56.2446C111.243 56.3849 111.49 56.6446 111.614 56.9667C111.737 57.2887 111.728 57.6467 111.588 57.9619L106.473 69.4533L96.7643 65.1322L101.876 53.6467C101.945 53.4893 102.045 53.3472 102.169 53.2285C102.294 53.1098 102.44 53.017 102.601 52.9554C102.761 52.8937 102.932 52.8645 103.104 52.8694C103.276 52.8743 103.445 52.9133 103.602 52.984Z" fill="#55B3F2"/>
<path d="M106.94 68.2068C103.603 66.9689 100.349 65.5198 97.1968 63.8681C98.8836 64.4359 100.532 65.1104 102.134 65.8876C103.785 66.5537 105.391 67.3285 106.94 68.2068Z" fill="#E0E0E0"/>
<path d="M98.1492 64.1809C98.8156 62.2563 99.5923 60.3717 100.476 58.5365C101.247 56.6534 102.127 54.8164 103.11 53.0347C102.436 54.9565 101.66 56.8407 100.783 58.6791C100.005 60.5591 99.1256 62.3957 98.1492 64.1809Z" fill="#E0E0E0"/>
<path d="M99.461 64.7649C100.127 62.8403 100.904 60.9557 101.787 59.1205C102.559 57.2374 103.438 55.4004 104.422 53.6187C103.748 55.5382 102.971 57.4195 102.093 59.2542C101.317 61.1379 100.438 62.9775 99.461 64.7649Z" fill="#E0E0E0"/>
<path d="M100.796 65.3779C101.47 63.456 102.246 61.5718 103.122 59.7334C103.901 57.8534 104.78 56.0168 105.757 54.2316C105.09 56.1562 104.313 58.0408 103.43 59.876C102.655 61.7576 101.776 63.5944 100.796 65.3779Z" fill="#E0E0E0"/>
<path d="M102.109 65.9426C102.783 64.0207 103.559 62.1365 104.435 60.2981C105.214 58.4182 106.093 56.5816 107.07 54.7963C106.393 56.7137 105.609 58.5919 104.724 60.4223C103.952 62.3081 103.079 64.1509 102.109 65.9426Z" fill="#E0E0E0"/>
<path d="M103.459 66.5418C104.125 64.6172 104.902 62.7326 105.785 60.8974C106.557 59.0142 107.436 57.1771 108.42 55.3955C107.746 57.3174 106.969 59.2015 106.093 61.0399C105.315 62.9199 104.435 64.7566 103.459 66.5418Z" fill="#E0E0E0"/>
<path d="M104.764 67.1254C105.44 65.1957 106.226 63.3066 107.12 61.4678C107.892 59.5847 108.771 57.7476 109.754 55.9659C109.081 57.8878 108.304 59.772 107.428 61.6104C106.64 63.4955 105.751 65.3365 104.764 67.1254Z" fill="#E0E0E0"/>
<path d="M106.11 67.7199C106.783 65.8 107.559 63.9177 108.434 62.0811C109.213 60.1992 110.093 58.3606 111.071 56.5736C110.405 58.4982 109.628 60.3828 108.745 62.218C107.973 64.1012 107.094 65.9382 106.11 67.7199Z" fill="#E0E0E0"/>
<path d="M93.5992 23.7861L101.967 31.0123L56.816 83.2976C56.3786 83.8041 55.7579 84.1162 55.0904 84.1651C54.423 84.2139 53.7634 83.9956 53.2569 83.5582L48.6988 79.622C48.1922 79.1846 47.8802 78.5639 47.8313 77.8964C47.7825 77.229 48.0008 76.5694 48.4382 76.0629L93.5894 23.7776L93.5992 23.7861Z" fill="#E0E0E0"/>
<path d="M85.7241 32.9456L94.0934 40.1704L61.6584 77.7435C61.2211 78.2501 60.6004 78.5623 59.9329 78.6113C59.2655 78.6602 58.6059 78.4421 58.0993 78.0047L53.5405 74.0693C53.0339 73.632 52.7217 73.0114 52.6727 72.3439C52.6238 71.6764 52.8419 71.0168 53.2793 70.5102L85.7142 32.9371L85.7241 32.9456Z" fill="#008DEB"/>
<path d="M97.4364 36.3112L91.8536 31.4918L70.4046 56.3387L75.9874 61.1581L97.4364 36.3112Z" fill="white"/>
<path d="M53.3017 83.5469C53.6849 83.8413 54.137 84.0329 54.615 84.1035C55.1958 84.1768 55.7839 84.0447 56.2777 83.7302C56.5809 83.5162 56.8494 83.2568 57.0737 82.961C57.3357 82.6531 57.6104 82.3224 57.9059 81.981C60.2837 79.2129 63.7125 75.2071 67.9816 70.2333C76.5408 60.2751 88.4727 46.451 101.878 30.888L101.896 31.1218L95.4317 25.5481L93.5233 23.8978L93.7628 23.8829C79.3943 40.4868 66.4693 55.4318 57.122 66.2382C54.7855 68.9326 52.671 71.3636 50.8146 73.5069C50.3529 74.0385 49.9007 74.553 49.4726 75.0512C49.2601 75.2975 49.0357 75.5519 48.8384 75.7843C48.6271 76.0025 48.4383 76.2414 48.275 76.4974C47.9962 76.9905 47.8933 77.5638 47.9832 78.1231C48.0698 78.6308 48.3137 79.0986 48.6804 79.4602L52.1172 82.4809L53.0089 83.2711C53.2073 83.4493 53.3017 83.5469 53.3017 83.5469L52.9874 83.2963L52.074 82.5313L48.5917 79.5522C48.1759 79.1545 47.9038 78.6302 47.8177 78.0614C47.7317 77.4926 47.8366 76.9113 48.1161 76.4085C48.2818 76.139 48.4751 75.8875 48.6929 75.6581C48.8934 75.42 49.1185 75.151 49.3183 74.9275C49.7496 74.4236 50.1809 73.9197 50.6521 73.3711C52.4972 71.2215 54.5978 68.7753 56.9261 66.0689C66.2507 55.2497 79.1448 40.28 93.4856 23.6456L93.5651 23.5038L93.691 23.6116L95.6051 25.2651L102.066 30.8444L102.192 30.9523L102.113 31.0941C88.6679 46.6349 76.731 60.4412 68.1296 70.3684L57.9815 82.0457C57.6771 82.3895 57.3999 82.7114 57.1323 83.0162C56.899 83.3191 56.6182 83.5822 56.3008 83.7954C55.796 84.1142 55.195 84.2448 54.6034 84.1641C54.2414 84.1111 53.8956 83.9785 53.5909 83.7759C53.4871 83.7094 53.3902 83.6327 53.3017 83.5469Z" fill="#E0E0E0"/>
<path d="M103.23 12.9612L111.471 20.0755C111.732 20.3009 111.893 20.6208 111.919 20.9649C111.944 21.309 111.831 21.6489 111.606 21.9101L100.922 34.2867L90.7015 25.464L101.377 13.0972C101.489 12.9651 101.626 12.8566 101.78 12.7781C101.934 12.6996 102.102 12.6526 102.275 12.64C102.448 12.6273 102.621 12.6492 102.785 12.7044C102.949 12.7595 103.1 12.8468 103.23 12.9612Z" fill="#55B3F2"/>
<path d="M101.934 32.9432C101.889 33.0226 99.5282 31.0891 96.6934 28.6441C93.8585 26.1991 91.6161 24.1605 91.6776 24.0905C91.7391 24.0206 94.0831 25.9447 96.9179 28.3897C99.7528 30.8347 101.99 32.8701 101.934 32.9432Z" fill="#E0E0E0"/>
<path d="M92.7318 24.8183C92.6467 24.7707 94.8695 22.0797 97.6652 18.8449C100.461 15.6102 102.786 13.0289 102.856 13.0904C102.926 13.1519 100.713 15.8258 97.9228 19.0638C95.1328 22.3017 92.8017 24.8798 92.7318 24.8183Z" fill="#E0E0E0"/>
<path d="M94.102 26.0066C94.0226 25.9621 96.2397 23.268 99.0354 20.0332C101.831 16.7985 104.156 14.2171 104.226 14.2787C104.296 14.3402 102.089 17.0173 99.293 20.2521C96.4973 23.4868 94.1549 26.0586 94.102 26.0066Z" fill="#E0E0E0"/>
<path d="M95.5209 27.2237C95.4414 27.1792 97.6553 24.4908 100.454 21.2503C103.253 18.0099 105.572 15.4399 105.642 15.5014C105.712 15.563 103.507 18.2344 100.709 21.4748C97.9097 24.7153 95.5908 27.2852 95.5209 27.2237Z" fill="#E0E0E0"/>
<path d="M96.8922 28.4093C96.8128 28.3649 99.0324 25.6796 101.826 22.436C104.619 19.1924 106.943 16.6256 107.019 16.6902C107.095 16.7549 104.879 19.42 102.086 22.6636C99.2925 25.9073 96.9678 28.474 96.8922 28.4093Z" fill="#E0E0E0"/>
<path d="M98.3069 29.6363C98.2275 29.5918 100.45 26.9009 103.24 23.6629C106.03 20.425 108.361 17.8469 108.431 17.9084C108.501 17.9699 106.294 20.647 103.498 23.8818C100.702 27.1165 98.3609 29.7262 98.3069 29.6363Z" fill="#E0E0E0"/>
<path d="M99.6855 30.822C99.6061 30.7775 101.823 28.0834 104.619 24.8487C107.415 21.6139 109.74 19.0326 109.81 19.0941C109.88 19.1556 107.672 21.8327 104.876 25.0675C102.081 28.3022 99.7554 30.8836 99.6855 30.822Z" fill="#E0E0E0"/>
<path d="M101.101 32.0481C101.021 32.0036 103.238 29.3095 106.034 26.0747C108.83 22.84 111.155 20.2587 111.225 20.3202C111.295 20.3817 109.09 23.0531 106.292 26.2936C103.493 29.534 101.196 32.1167 101.101 32.0481Z" fill="#E0E0E0"/>
<path d="M98.6049 63.1773L106.561 66.7183L84.6592 115.928C84.3871 116.54 83.8832 117.018 83.2584 117.258C82.6336 117.498 81.9391 117.48 81.3277 117.208L77.9765 115.716C77.3651 115.444 76.8868 114.94 76.6469 114.315C76.407 113.691 76.425 112.996 76.6972 112.385L98.599 63.1747L98.6049 63.1773Z" fill="#E0E0E0"/>
<path d="M94.7107 71.9194L102.667 75.4604L86.9927 110.677C86.7206 111.289 86.2167 111.767 85.5919 112.007C84.9671 112.247 84.2727 112.229 83.6612 111.957L80.3101 110.465C79.6986 110.193 79.2203 109.689 78.9804 109.064C78.7405 108.44 78.7586 107.745 79.0307 107.134L94.7047 71.9167L94.7107 71.9194Z" fill="#008DEB"/>
<path d="M104.302 71.7848L98.9958 69.4232L88.4866 93.0359L93.7926 95.3974L104.302 71.7848Z" fill="white"/>
<path d="M81.3252 117.215C81.6844 117.345 82.0647 117.406 82.4465 117.396C82.9059 117.371 83.3495 117.22 83.7278 116.958C83.9716 116.794 84.1835 116.587 84.3534 116.347C84.532 116.063 84.6808 115.762 84.7974 115.447C85.9702 112.795 87.6719 108.984 89.7413 104.225C93.9585 94.712 99.8139 81.5025 106.398 66.6588L106.484 66.8783L100.834 64.3623L98.5292 63.3398L98.7487 63.254C91.7757 78.8715 85.512 92.9033 80.9799 103.045C79.848 105.571 78.8206 107.858 77.9084 109.86C77.4653 110.864 77.0224 111.801 76.6651 112.652C76.535 113.049 76.5083 113.474 76.5873 113.884C76.6663 114.295 76.8486 114.679 77.1169 115C77.5988 115.475 78.1837 115.833 78.8264 116.047L80.1919 116.67L81.0295 117.064L81.3075 117.22L81.0129 117.107L80.1594 116.741L78.7781 116.146L77.8995 115.758C77.5577 115.606 77.2541 115.38 77.0104 115.097C76.7221 114.76 76.5245 114.356 76.4364 113.921C76.3482 113.487 76.3724 113.038 76.5067 112.615C76.8685 111.73 77.2899 110.818 77.7337 109.799C78.6231 107.785 79.6335 105.489 80.7484 102.952C85.2546 92.8039 91.49 78.7562 98.4232 63.1165L98.5058 62.9689L98.6534 63.0516L100.958 64.074L106.608 66.59L106.756 66.6726L106.673 66.8202C100.046 81.6473 94.1533 94.8434 89.9134 104.343C87.7815 109.068 86.0653 112.878 84.8755 115.521C84.7482 115.84 84.5915 116.147 84.4074 116.437C84.1745 116.749 83.8744 117.005 83.5293 117.186C83.1841 117.367 82.8027 117.468 82.4133 117.482C82.1236 117.491 81.8347 117.448 81.5603 117.354C81.4789 117.313 81.4003 117.267 81.3252 117.215Z" fill="#E0E0E0"/>
<path d="M103.602 52.984L110.928 56.2446C111.243 56.3849 111.49 56.6446 111.614 56.9667C111.737 57.2887 111.728 57.6467 111.588 57.9619L106.473 69.4533L96.7643 65.1322L101.876 53.6467C101.945 53.4893 102.045 53.3472 102.169 53.2285C102.294 53.1098 102.44 53.017 102.601 52.9554C102.761 52.8937 102.932 52.8645 103.104 52.8694C103.276 52.8743 103.445 52.9133 103.602 52.984Z" fill="#55B3F2"/>
<path d="M106.94 68.2068C103.603 66.9689 100.349 65.5198 97.1968 63.8681C98.8836 64.4359 100.532 65.1104 102.134 65.8876C103.785 66.5537 105.391 67.3285 106.94 68.2068Z" fill="#E0E0E0"/>
<path d="M98.1492 64.1809C98.8156 62.2563 99.5923 60.3717 100.476 58.5365C101.247 56.6534 102.127 54.8164 103.11 53.0347C102.436 54.9565 101.66 56.8407 100.783 58.6791C100.005 60.5591 99.1256 62.3957 98.1492 64.1809Z" fill="#E0E0E0"/>
<path d="M99.461 64.7649C100.127 62.8403 100.904 60.9557 101.787 59.1205C102.559 57.2374 103.438 55.4004 104.422 53.6187C103.748 55.5382 102.971 57.4195 102.093 59.2542C101.317 61.1379 100.438 62.9775 99.461 64.7649Z" fill="#E0E0E0"/>
<path d="M100.796 65.3779C101.47 63.456 102.246 61.5718 103.122 59.7334C103.901 57.8534 104.78 56.0168 105.757 54.2316C105.09 56.1562 104.313 58.0408 103.43 59.876C102.655 61.7576 101.776 63.5944 100.796 65.3779Z" fill="#E0E0E0"/>
<path d="M102.109 65.9426C102.783 64.0207 103.559 62.1365 104.435 60.2981C105.214 58.4182 106.093 56.5816 107.07 54.7963C106.393 56.7137 105.609 58.5919 104.724 60.4223C103.952 62.3081 103.079 64.1509 102.109 65.9426Z" fill="#E0E0E0"/>
<path d="M103.459 66.5418C104.125 64.6172 104.902 62.7326 105.785 60.8974C106.557 59.0142 107.436 57.1771 108.42 55.3955C107.746 57.3174 106.969 59.2015 106.093 61.0399C105.315 62.9199 104.435 64.7566 103.459 66.5418Z" fill="#E0E0E0"/>
<path d="M104.764 67.1254C105.44 65.1957 106.226 63.3066 107.12 61.4678C107.892 59.5847 108.771 57.7476 109.754 55.9659C109.081 57.8878 108.304 59.772 107.428 61.6104C106.64 63.4955 105.751 65.3365 104.764 67.1254Z" fill="#E0E0E0"/>
<path d="M106.11 67.7199C106.783 65.8 107.559 63.9177 108.434 62.0811C109.213 60.1992 110.093 58.3606 111.071 56.5736C110.405 58.4982 109.628 60.3828 108.745 62.218C107.973 64.1012 107.094 65.9382 106.11 67.7199Z" fill="#E0E0E0"/>
<path d="M354.936 87.8383H354.705C352.612 87.8383 350.915 89.5351 350.915 91.6282V128.726C350.915 130.819 352.612 132.516 354.705 132.516H354.936C357.029 132.516 358.726 130.819 358.726 128.726V91.6282C358.726 89.5351 357.029 87.8383 354.936 87.8383Z" fill="#E0E0E0"/>
<path d="M354.936 101.19H354.705C352.612 101.19 350.915 102.887 350.915 104.98V128.725C350.915 130.818 352.612 132.515 354.705 132.515H354.936C357.029 132.515 358.726 130.818 358.726 128.725V104.98C358.726 102.887 357.029 101.19 354.936 101.19Z" fill="#008DEB"/>
<path d="M367.726 87.8383H367.495C365.402 87.8383 363.705 89.5351 363.705 91.6282V128.726C363.705 130.819 365.402 132.516 367.495 132.516H367.726C369.819 132.516 371.516 130.819 371.516 128.726V91.6282C371.516 89.5351 369.819 87.8383 367.726 87.8383Z" fill="#E0E0E0"/>
<path d="M367.726 108.115H367.495C365.402 108.115 363.705 109.812 363.705 111.905V128.725C363.705 130.818 365.402 132.515 367.495 132.515H367.726C369.819 132.515 371.516 130.818 371.516 128.725V111.905C371.516 109.812 369.819 108.115 367.726 108.115Z" fill="#008DEB"/>
<path d="M382.194 87.8383H381.963C379.87 87.8383 378.173 89.5351 378.173 91.6282V128.726C378.173 130.819 379.87 132.516 381.963 132.516H382.194C384.287 132.516 385.984 130.819 385.984 128.726V91.6282C385.984 89.5351 384.287 87.8383 382.194 87.8383Z" fill="#E0E0E0"/>
<path d="M382.194 95.9158H381.963C379.87 95.9158 378.173 97.6126 378.173 99.7057V128.734C378.173 130.828 379.87 132.524 381.963 132.524H382.194C384.287 132.524 385.984 130.828 385.984 128.734V99.7057C385.984 97.6126 384.287 95.9158 382.194 95.9158Z" fill="#008DEB"/>
<path d="M354.937 132.527C354.937 132.527 355.287 132.527 355.914 132.343C356.825 132.082 357.601 131.481 358.081 130.664C358.432 130.087 358.614 129.422 358.607 128.746C358.607 127.981 358.607 127.16 358.607 126.275C358.607 124.505 358.607 122.485 358.607 120.263C358.607 115.8 358.607 110.497 358.607 104.587C358.607 101.645 358.607 98.5558 358.607 95.3652V92.9492C358.663 92.1558 358.611 91.3583 358.45 90.5793C358.207 89.821 357.719 89.1646 357.064 88.7126C356.408 88.2605 355.621 88.0382 354.826 88.0803C354.034 88.0853 353.266 88.3534 352.644 88.8426C352.021 89.3317 351.579 90.014 351.386 90.7822C351.269 91.5756 351.232 92.3789 351.276 93.1797V95.568C351.276 98.7678 351.276 101.857 351.276 104.789C351.276 110.673 351.276 115.975 351.276 120.466C351.276 122.688 351.276 124.698 351.276 126.478C351.276 127.4 351.276 128.193 351.276 128.94C351.314 129.602 351.535 130.24 351.912 130.784C352.449 131.565 353.258 132.117 354.18 132.333C354.817 132.463 355.167 132.435 355.167 132.463C354.835 132.52 354.495 132.52 354.162 132.463C353.194 132.277 352.334 131.73 351.755 130.932C351.337 130.351 351.091 129.664 351.045 128.949C351.045 128.175 351.045 127.363 351.045 126.478C351.045 124.698 351.045 122.688 351.045 120.466C351.045 116.003 351.045 110.7 350.99 104.789C350.99 101.839 350.99 98.7494 350.99 95.568C350.99 94.7658 350.99 93.9543 350.99 93.1428V91.9533C350.976 91.5197 351.016 91.086 351.11 90.6623C351.33 89.791 351.834 89.0177 352.542 88.4636C353.249 87.9095 354.121 87.606 355.02 87.6008C355.921 87.5666 356.81 87.8219 357.556 88.3293C358.282 88.8456 358.822 89.5831 359.095 90.4318C359.215 90.8517 359.278 91.286 359.28 91.7228V92.9492C359.28 93.7699 359.28 94.5721 359.28 95.3744C359.28 98.5834 359.28 101.673 359.28 104.596C359.28 110.479 359.28 115.781 359.225 120.272C359.225 122.494 359.225 124.514 359.225 126.284C359.225 127.206 359.225 127.99 359.225 128.756C359.214 129.467 359.01 130.162 358.634 130.766C358.334 131.227 357.937 131.617 357.47 131.909C357.004 132.2 356.479 132.386 355.933 132.453C355.607 132.535 355.27 132.56 354.937 132.527Z" fill="#263238"/>
<path d="M367.715 132.524C367.715 132.524 368.066 132.524 368.693 132.34C369.477 132.122 370.167 131.652 370.655 131.001C371.144 130.351 371.404 129.557 371.395 128.743C371.395 127.978 371.395 127.157 371.395 126.272C371.395 124.502 371.395 122.482 371.395 120.26C371.395 115.797 371.395 110.494 371.395 104.584C371.395 101.642 371.395 98.5528 371.395 95.3622V92.9463C371.448 92.1524 371.392 91.355 371.229 90.5764C370.979 89.8232 370.493 89.1706 369.844 88.7154C369.194 88.2602 368.414 88.0266 367.621 88.0494C366.828 88.0722 366.064 88.3501 365.441 88.8418C364.818 89.3336 364.371 90.013 364.165 90.7792C364.052 91.573 364.018 92.3762 364.064 93.1768C364.064 93.9883 364.064 94.7997 364.064 95.602C364.064 98.8018 364.064 101.891 364.064 104.823C364.064 110.707 364.064 116.009 364.008 120.5C364.008 122.722 364.008 124.732 364.008 126.512C364.008 127.434 364.008 128.227 364.008 128.974C364.055 129.634 364.275 130.27 364.645 130.818C365.185 131.6 365.997 132.152 366.922 132.367C367.549 132.497 367.909 132.469 367.9 132.497C367.567 132.554 367.227 132.554 366.895 132.497C366.061 132.337 365.304 131.906 364.741 131.27C364.179 130.634 363.843 129.83 363.787 128.983C363.787 128.209 363.787 127.397 363.787 126.512C363.787 124.732 363.787 122.722 363.787 120.5C363.787 116.036 363.787 110.734 363.741 104.823C363.741 101.872 363.741 98.7834 363.741 95.602V91.9135C363.722 91.4797 363.763 91.0454 363.861 90.6225C364.08 89.7504 364.583 88.9762 365.291 88.4218C365.999 87.8675 366.871 87.5646 367.771 87.561C368.669 87.5255 369.555 87.781 370.297 88.2895C371.029 88.8024 371.573 89.5408 371.846 90.3919C371.968 90.8113 372.027 91.2463 372.022 91.6829V95.3715C372.022 98.5805 372.022 101.67 372.022 104.593C372.022 110.476 372.022 115.778 371.976 120.269C371.976 122.491 371.976 124.511 371.976 126.281C371.976 127.203 371.976 127.987 371.976 128.753C371.966 129.465 371.759 130.162 371.376 130.763C370.858 131.603 370.03 132.206 369.071 132.441C368.632 132.573 368.167 132.602 367.715 132.524Z" fill="#263238"/>
<path d="M382.186 132.526C382.186 132.526 382.536 132.526 383.163 132.341C383.947 132.124 384.637 131.653 385.126 131.003C385.614 130.352 385.874 129.558 385.865 128.745C385.865 127.98 385.865 127.159 385.865 126.274C385.865 124.503 385.865 122.484 385.865 120.261C385.865 115.798 385.865 110.496 385.81 104.585C385.81 101.643 385.81 98.5543 385.81 95.3637V92.9477C385.863 92.1539 385.807 91.3564 385.644 90.5778C385.394 89.8247 384.908 89.1721 384.259 88.7169C383.609 88.2617 382.829 88.0281 382.036 88.0509C381.243 88.0737 380.479 88.3516 379.856 88.8433C379.233 89.3351 378.786 90.0145 378.58 90.7807C378.468 91.5746 378.431 92.3774 378.469 93.1783V95.5666C378.469 98.7664 378.469 101.856 378.469 104.788C378.469 110.671 378.469 115.973 378.414 120.464C378.414 122.686 378.414 124.697 378.414 126.476C378.414 127.399 378.414 128.192 378.414 128.939C378.457 129.599 378.677 130.236 379.05 130.783C379.589 131.562 380.397 132.114 381.319 132.332C381.955 132.461 382.306 132.433 382.306 132.461C381.973 132.518 381.633 132.518 381.3 132.461C380.467 132.302 379.709 131.87 379.147 131.235C378.585 130.599 378.249 129.795 378.193 128.948C378.193 128.173 378.193 127.362 378.193 126.476C378.193 124.697 378.193 122.686 378.193 120.464C378.193 116.001 378.193 110.699 378.193 104.788C378.193 101.837 378.193 98.7479 378.193 95.5666V91.8781C378.174 91.4443 378.215 91.01 378.313 90.5871C378.532 89.715 379.035 88.9407 379.743 88.3864C380.451 87.8321 381.323 87.5292 382.223 87.5256C383.119 87.483 384.004 87.7374 384.741 88.2493C385.478 88.7611 386.025 89.5018 386.298 90.3565C386.42 90.7759 386.479 91.2109 386.474 91.6475V95.336C386.474 98.5451 386.474 101.634 386.474 104.557C386.474 110.441 386.474 115.743 386.474 120.234C386.474 122.456 386.474 124.475 386.474 126.246C386.474 127.168 386.474 127.952 386.474 128.717C386.464 129.43 386.257 130.126 385.874 130.727C385.356 131.568 384.528 132.171 383.569 132.406C383.124 132.554 382.65 132.596 382.186 132.526Z" fill="#263238"/>
<path d="M368.454 58.9396C368.733 58.9173 369.014 58.9173 369.293 58.9396L371.773 59.0041C372.318 59.0041 372.935 59.0041 373.618 59.0871L375.803 59.4007L378.358 59.7603L381.207 60.4703C386.117 61.7094 390.79 63.7468 395.039 66.5011C401.331 70.4979 406.624 75.8831 410.512 82.2435C414.399 88.6038 416.778 95.7702 417.465 103.193C417.656 105.416 417.7 107.649 417.594 109.878C417.52 111.012 417.539 112.156 417.373 113.299C417.207 114.443 417.032 115.586 416.857 116.748C415.994 121.486 414.441 126.072 412.246 130.359C409.88 134.851 406.869 138.974 403.31 142.595C399.542 146.312 395.222 149.423 390.502 151.817C385.62 154.319 380.335 155.943 374.89 156.612C373.51 156.822 372.118 156.939 370.722 156.962C369.323 157.07 367.919 157.095 366.517 157.036C357.525 156.689 348.801 153.879 341.297 148.912L341.804 148.967L324.708 155.828L323.703 156.234L323.989 155.183L329.014 136.906L329.097 137.349C324.458 131.2 321.334 124.044 319.977 116.462C319.323 112.918 319.103 109.307 319.323 105.71C319.355 103.989 319.516 102.272 319.802 100.574C319.94 99.7347 320.07 98.8956 320.199 98.0657C320.328 97.2358 320.595 96.452 320.789 95.6497C323.665 84.4371 330.421 74.6063 339.858 67.9027C343.349 65.3945 347.169 63.3805 351.21 61.9181L353.764 60.996L356.208 60.3412L358.421 59.788C359.14 59.6496 359.823 59.5759 360.468 59.4837C361.759 59.3177 362.893 59.0964 363.889 59.041L366.407 58.958H367.937C368.112 58.9437 368.288 58.9437 368.463 58.958C368.292 59.0078 368.115 59.0327 367.937 59.0318L366.416 59.1517L363.917 59.3177C362.93 59.4007 361.805 59.6496 360.523 59.8341C351.249 61.4405 342.64 65.7027 335.739 72.104C328.839 78.5053 323.943 86.7709 321.646 95.8987C321.462 96.6917 321.222 97.4755 321.075 98.2778C320.927 99.08 320.826 99.91 320.706 100.74C320.429 102.407 320.278 104.094 320.254 105.784C320.061 109.297 320.293 112.821 320.946 116.278C322.305 123.697 325.388 130.693 329.946 136.703L330.093 136.915L330.029 137.155C328.418 143.063 326.755 149.161 325.04 155.45L324.321 154.805C329.89 152.561 335.586 150.268 341.408 147.925L341.675 147.815L341.915 147.972C349.256 152.819 357.783 155.564 366.573 155.911C367.944 155.965 369.317 155.94 370.685 155.837C372.047 155.816 373.406 155.702 374.752 155.496C380.077 154.85 385.246 153.271 390.022 150.83C394.641 148.496 398.874 145.467 402.573 141.849C406.045 138.294 408.986 134.256 411.305 129.861C413.485 125.668 415.039 121.179 415.916 116.536C416.088 115.399 416.263 114.274 416.442 113.161C416.608 112.045 416.589 110.92 416.672 109.814C416.779 107.625 416.742 105.432 416.561 103.248C415.914 95.9385 413.608 88.8729 409.82 82.5883C406.031 76.3038 400.859 70.966 394.698 66.9806C390.525 64.227 385.935 62.1656 381.105 60.8761L378.293 60.1291L375.766 59.7142L373.59 59.3546C372.926 59.2808 372.318 59.2623 371.746 59.2255L369.274 59.041C368.998 59.0316 368.724 58.9977 368.454 58.9396Z" fill="white"/>
<path d="M366.022 234.778C358.847 230.625 347.188 230.625 339.959 234.778C337.115 236.428 335.411 238.473 334.819 240.598C327.94 244.769 328.039 251.361 335.124 255.451C342.21 259.541 353.959 259.604 361.179 255.451C364.031 253.81 365.726 251.765 366.327 249.63C373.198 245.46 373.108 238.876 366.022 234.778Z" fill="#90B5CD"/>
<path d="M362.938 240.534C362.843 240.257 362.729 239.988 362.597 239.727C362.485 239.504 362.359 239.289 362.22 239.081C361.573 238.144 360.758 237.335 359.816 236.696V239.18L357.691 237.942V235.476C351.771 232.668 343.017 232.875 337.492 236.059C335.619 237.006 334.15 238.599 333.358 240.543C333.358 240.687 333.277 240.821 333.241 240.965C333.135 241.372 333.08 241.791 333.08 242.211V247.135C333.098 248.315 333.484 249.459 334.183 250.409C335.067 251.595 336.196 252.576 337.492 253.288C343.385 256.687 352.928 256.687 358.803 253.288C361.745 251.584 363.225 249.36 363.225 247.135V242.211C363.223 241.64 363.126 241.074 362.938 240.534Z" fill="#1D6595"/>
<path d="M352.874 233.943C347.645 232.948 341.654 233.647 337.492 236.051C335.619 236.999 334.15 238.591 333.358 240.536C333.358 240.679 333.277 240.814 333.241 240.957C333.135 241.364 333.08 241.783 333.08 242.204V247.128C333.098 248.307 333.484 249.451 334.183 250.401C335.067 251.587 336.196 252.569 337.492 253.28C341.654 255.684 347.645 256.375 352.874 255.379V233.943Z" fill="#55B3F2"/>
<path d="M337.502 236.051C331.977 239.244 331.636 244.293 336.488 247.71L357.691 235.468C351.771 232.669 343.027 232.902 337.502 236.051Z" fill="#BDE5FF"/>
<path d="M336.479 246.42C336.479 246.42 330.623 241.935 337.134 236.276C331.968 239.469 331.753 244.348 336.488 247.711L357.691 235.469L336.479 246.42Z" fill="#82CFFF"/>
<path d="M359.816 236.697L338.613 248.94C344.533 251.738 353.286 251.55 358.811 248.357C364.336 245.164 364.668 240.078 359.816 236.697Z" fill="#BDE5FF"/>
<path d="M338.613 248.94C344.533 251.738 353.286 251.55 358.811 248.357C359.426 248.006 360.008 247.601 360.551 247.146C349.708 252.581 340.99 248.751 340.99 248.751L359.825 236.697L338.613 248.94Z" fill="#82CFFF"/>
<path d="M357.69 237.935L336.488 250.232V247.711L357.69 235.469V237.935Z" fill="#90B5CD"/>
<path opacity="0.2" d="M303.904 225.799L303.913 228.32L301.779 227.091L303.904 225.799Z" fill="black"/>
<path d="M368.893 232.644C368.801 232.363 368.687 232.09 368.553 231.827C368.436 231.608 368.307 231.396 368.167 231.191C367.524 230.254 366.712 229.445 365.772 228.805V231.271L363.638 230.034V227.567C357.718 224.769 348.973 224.966 343.448 228.159C341.57 229.101 340.1 230.695 339.314 232.644C339.269 232.787 339.224 232.922 339.188 233.056C339.089 233.464 339.038 233.883 339.036 234.303V239.236C339.054 240.415 339.44 241.559 340.139 242.51C341.021 243.694 342.151 244.674 343.448 245.38C349.332 248.779 358.875 248.779 364.759 245.38C367.701 243.685 369.172 241.46 369.172 239.236V234.303C369.172 233.738 369.078 233.177 368.893 232.644Z" fill="#1D6595"/>
<path d="M358.785 226.043C353.547 225.048 347.564 225.756 343.403 228.16C341.525 229.101 340.054 230.696 339.268 232.644C339.223 232.788 339.178 232.922 339.143 233.057C339.043 233.465 338.992 233.883 338.99 234.304V239.237C339.009 240.416 339.394 241.56 340.093 242.51C340.976 243.695 342.105 244.674 343.403 245.38C347.564 247.784 353.547 248.484 358.785 247.488V226.043Z" fill="#55B3F2"/>
<path d="M343.404 228.16C337.879 231.344 337.538 236.394 342.39 239.82L363.593 227.586C357.673 224.77 348.929 224.967 343.404 228.16Z" fill="#BDE5FF"/>
<path d="M342.39 238.527C342.39 238.527 336.533 234.043 343.045 228.374C337.87 231.576 337.663 236.446 342.39 239.81L363.593 227.576L342.39 238.527Z" fill="#82CFFF"/>
<path d="M365.728 228.804L344.525 241.047C350.445 243.845 359.19 243.648 364.715 240.455C370.239 237.262 370.571 232.222 365.728 228.804Z" fill="#BDE5FF"/>
<path d="M344.525 241.047C350.445 243.845 359.19 243.648 364.714 240.455C365.329 240.106 365.911 239.704 366.454 239.253C355.62 244.68 346.893 240.85 346.893 240.85L365.728 228.804L344.525 241.047Z" fill="#82CFFF"/>
<path d="M363.592 230.033L342.39 242.339V239.81L363.592 227.576V230.033Z" fill="#90B5CD"/>
<path opacity="0.2" d="M309.816 217.91V220.43L307.681 219.201L309.816 217.91Z" fill="black"/>
<path d="M400.409 232.623C399.512 232.103 398.947 230.982 398.947 229.385C399.042 227.648 399.544 225.958 400.413 224.451C401.283 222.944 402.495 221.663 403.952 220.712C404.457 220.346 405.05 220.12 405.671 220.058C406.292 219.997 406.918 220.102 407.486 220.362L413.925 224.094C415.552 225.034 416.739 226.583 417.224 228.399C417.71 230.214 417.454 232.149 416.513 233.776C415.572 235.403 414.023 236.589 412.208 237.075C410.392 237.56 408.458 237.304 406.831 236.363L400.409 232.623Z" fill="#BEE5FF"/>
<path d="M391.538 227.494C390.667 227.064 389.893 226.46 389.265 225.719C388.637 224.978 388.167 224.116 387.886 223.186C387.605 222.256 387.517 221.279 387.629 220.314C387.741 219.349 388.05 218.417 388.537 217.576C389.024 216.736 389.678 216.004 390.459 215.427C391.24 214.849 392.132 214.438 393.078 214.219C394.025 214.001 395.006 213.979 395.962 214.154C396.917 214.33 397.826 214.701 398.632 215.242L407.485 220.391C406.918 220.13 406.292 220.025 405.671 220.087C405.049 220.148 404.456 220.374 403.951 220.74C402.494 221.691 401.282 222.972 400.413 224.479C399.543 225.986 399.041 227.676 398.946 229.413C398.946 231.01 399.502 232.104 400.408 232.651L391.538 227.494Z" fill="#55B3F2"/>
<path opacity="0.4" d="M393.135 217.099C392.954 217.407 392.836 217.747 392.788 218.1C392.739 218.454 392.762 218.813 392.853 219.158C392.945 219.503 393.105 219.826 393.322 220.108C393.54 220.391 393.812 220.627 394.122 220.804L404.84 227.019C405.743 225.524 406.249 223.823 406.311 222.077C406.311 221.907 406.311 221.745 406.311 221.593L396.84 216.14C396.534 215.957 396.195 215.838 395.843 215.787C395.49 215.737 395.132 215.757 394.787 215.846C394.443 215.935 394.119 216.092 393.836 216.307C393.552 216.522 393.314 216.792 393.135 217.099Z" fill="#CFECFF"/>
<path d="M400.409 232.623C399.512 232.103 398.947 230.982 398.947 229.385C399.042 227.648 399.544 225.958 400.413 224.451C401.283 222.944 402.495 221.663 403.952 220.712C404.457 220.346 405.05 220.12 405.671 220.058C406.292 219.997 406.918 220.102 407.486 220.362L413.925 224.094C415.552 225.034 416.739 226.583 417.224 228.399C417.71 230.214 417.454 232.149 416.513 233.776C415.572 235.403 414.023 236.589 412.208 237.075C410.392 237.56 408.458 237.304 406.831 236.363L400.409 232.623Z" fill="#BEE5FF"/>
<path opacity="0.1" d="M403.951 220.713C402.494 221.664 401.282 222.945 400.413 224.452C399.543 225.958 399.041 227.649 398.946 229.386C398.946 230.982 399.502 232.077 400.408 232.624L399.906 232.337L399.52 232.113C398.623 231.592 398.058 230.471 398.058 228.875C398.151 227.137 398.652 225.446 399.522 223.939C400.392 222.432 401.605 221.151 403.063 220.202C403.568 219.835 404.162 219.609 404.783 219.548C405.404 219.486 406.03 219.591 406.597 219.852L407.494 220.363C406.926 220.101 406.298 219.995 405.675 220.056C405.052 220.118 404.457 220.345 403.951 220.713Z" fill="black"/>
<path d="M417.414 229.476C417.583 230.968 417.269 232.474 416.517 233.773C416.052 234.579 415.432 235.286 414.693 235.853C413.954 236.42 413.111 236.836 412.211 237.077C411.312 237.318 410.373 237.379 409.45 237.256C408.527 237.134 407.637 236.831 406.831 236.365L400.409 232.625C399.512 232.104 398.947 230.983 398.947 229.387C398.954 228.653 399.056 227.923 399.252 227.216L410.015 233.432C413.531 235.477 417.378 231.799 417.414 229.476Z" fill="#A8DCFF"/>
<path d="M414.974 229.753C414.798 230.063 414.561 230.335 414.279 230.553C413.996 230.77 413.673 230.93 413.329 231.022C412.984 231.113 412.624 231.136 412.271 231.087C411.918 231.039 411.577 230.921 411.27 230.74L400.409 224.461C401.247 222.927 402.467 221.636 403.951 220.712L404.382 220.488L413.979 226.04C414.291 226.216 414.564 226.452 414.784 226.735C415.003 227.018 415.164 227.341 415.257 227.687C415.349 228.033 415.372 228.394 415.324 228.749C415.275 229.103 415.156 229.445 414.974 229.753Z" fill="#CFECFF"/>
<path opacity="0.1" d="M389.448 217.034C389.529 216.927 389.61 216.819 389.7 216.72L389.888 216.505L390.112 216.272C390.192 216.189 390.275 216.112 390.363 216.039L390.489 215.931C390.863 215.613 391.269 215.333 391.7 215.097L392.175 214.864C390.193 216.057 388.937 221.223 392.462 223.268C393.673 223.967 395.485 225.061 399.216 227.196C399.02 227.903 398.918 228.633 398.911 229.367C398.911 230.963 399.467 232.057 400.373 232.604L391.502 227.474C389.875 226.533 388.688 224.983 388.202 223.167C387.716 221.351 387.971 219.416 388.91 217.788C389.018 217.599 389.144 217.42 389.269 217.24L389.448 217.034Z" fill="black"/>
<path d="M421.991 255.765C422.888 255.245 423.453 254.124 423.453 252.527C423.359 250.79 422.856 249.1 421.987 247.593C421.118 246.086 419.905 244.805 418.449 243.854C417.944 243.488 417.35 243.262 416.729 243.2C416.108 243.139 415.482 243.244 414.915 243.504L408.475 247.236C406.848 248.176 405.661 249.725 405.176 251.541C404.691 253.356 404.947 255.291 405.888 256.918C406.828 258.545 408.377 259.731 410.193 260.217C412.008 260.702 413.943 260.446 415.57 259.505L421.991 255.765Z" fill="#BEE5FF"/>
<path d="M430.862 250.634C431.734 250.205 432.507 249.601 433.135 248.86C433.764 248.119 434.233 247.256 434.514 246.327C434.796 245.397 434.883 244.419 434.771 243.454C434.659 242.489 434.35 241.558 433.863 240.717C433.376 239.876 432.722 239.144 431.941 238.567C431.16 237.99 430.268 237.579 429.322 237.36C428.375 237.141 427.394 237.119 426.439 237.295C425.483 237.471 424.574 237.841 423.768 238.383L414.915 243.531C415.483 243.27 416.109 243.165 416.73 243.227C417.351 243.288 417.944 243.514 418.449 243.881C419.906 244.832 421.118 246.113 421.988 247.619C422.857 249.126 423.359 250.817 423.454 252.554C423.454 254.15 422.898 255.245 421.992 255.792L430.862 250.634Z" fill="#55B3F2"/>
<path opacity="0.4" d="M429.265 240.24C429.446 240.547 429.564 240.887 429.612 241.241C429.661 241.594 429.638 241.954 429.547 242.298C429.455 242.643 429.295 242.966 429.078 243.249C428.86 243.531 428.588 243.768 428.278 243.944L417.56 250.16C416.658 248.664 416.151 246.963 416.089 245.218C416.089 245.047 416.089 244.886 416.089 244.733L425.561 239.28C425.866 239.098 426.205 238.978 426.557 238.928C426.91 238.877 427.268 238.897 427.613 238.987C427.958 239.076 428.281 239.233 428.564 239.448C428.848 239.663 429.086 239.932 429.265 240.24Z" fill="#CFECFF"/>
<path d="M421.991 255.765C422.888 255.245 423.453 254.124 423.453 252.527C423.359 250.79 422.856 249.1 421.987 247.593C421.118 246.086 419.905 244.805 418.449 243.854C417.944 243.488 417.35 243.262 416.729 243.2C416.108 243.139 415.482 243.244 414.915 243.504L408.475 247.236C406.848 248.176 405.661 249.725 405.176 251.541C404.691 253.356 404.947 255.291 405.888 256.918C406.828 258.545 408.377 259.731 410.193 260.217C412.008 260.702 413.943 260.446 415.57 259.505L421.991 255.765Z" fill="#BEE5FF"/>
<path opacity="0.1" d="M418.449 243.854C419.905 244.805 421.117 246.086 421.987 247.593C422.856 249.099 423.359 250.79 423.453 252.527C423.453 254.123 422.897 255.218 421.991 255.765L422.494 255.478L422.879 255.254C423.776 254.733 424.341 253.612 424.341 252.016C424.249 250.278 423.747 248.587 422.878 247.08C422.008 245.573 420.795 244.292 419.336 243.343C418.832 242.976 418.238 242.75 417.617 242.689C416.996 242.627 416.37 242.732 415.803 242.993L414.906 243.504C415.474 243.242 416.102 243.136 416.725 243.197C417.348 243.259 417.943 243.486 418.449 243.854Z" fill="black"/>
<path d="M404.986 252.618C404.817 254.109 405.132 255.615 405.883 256.914C406.348 257.721 406.968 258.428 407.707 258.995C408.446 259.562 409.289 259.977 410.189 260.218C411.089 260.459 412.027 260.52 412.95 260.398C413.873 260.276 414.764 259.973 415.57 259.506L421.991 255.766C422.888 255.246 423.453 254.125 423.453 252.528C423.446 251.794 423.344 251.065 423.148 250.358L412.386 256.573C408.87 258.618 405.022 254.941 404.986 252.618Z" fill="#A8DCFF"/>
<path d="M407.426 252.894C407.602 253.204 407.838 253.476 408.121 253.694C408.403 253.911 408.726 254.071 409.071 254.163C409.416 254.254 409.775 254.277 410.129 254.228C410.482 254.18 410.822 254.062 411.13 253.881L421.991 247.602C421.153 246.068 419.933 244.777 418.448 243.853L418.018 243.629L408.421 249.181C408.109 249.357 407.835 249.593 407.616 249.876C407.397 250.159 407.236 250.482 407.143 250.828C407.05 251.174 407.028 251.535 407.076 251.89C407.125 252.244 407.243 252.586 407.426 252.894Z" fill="#CFECFF"/>
<path opacity="0.1" d="M432.952 240.176C432.871 240.069 432.79 239.961 432.701 239.863L432.512 239.647L432.288 239.414C432.209 239.332 432.125 239.254 432.037 239.181L431.911 239.073C431.537 238.755 431.131 238.476 430.701 238.239L430.225 238.006C432.207 239.199 433.463 244.365 429.938 246.41C428.727 247.11 426.916 248.204 423.185 250.338C423.38 251.046 423.483 251.775 423.489 252.509C423.489 254.105 422.933 255.2 422.028 255.747L430.898 250.616C432.525 249.675 433.712 248.126 434.198 246.31C434.684 244.493 434.43 242.558 433.49 240.93C433.382 240.742 433.257 240.562 433.131 240.383L432.952 240.176Z" fill="black"/>
<path d="M28.924 219.822H17.3544V225.607H28.924V219.822Z" fill="#008DEB"/>
<path d="M52.0632 214.037H34.7087V225.607H52.0632V214.037Z" fill="#55B3F2"/>
<path d="M69.4179 214.037H57.8483V225.607H69.4179V214.037Z" fill="#008DEB"/>
<path d="M86.7723 202.469H75.2026V225.608H86.7723V202.469Z" fill="#55B3F2"/>
<path d="M109.911 185.113H92.5569V225.607H109.911V185.113Z" fill="#008DEB"/>
<path d="M127.266 173.543H115.696V225.606H127.266V173.543Z" fill="#55B3F2"/>
<path d="M75.8831 313.675C73.7299 311.434 71.1461 309.652 68.2869 308.436C65.4277 307.219 62.3521 306.593 59.2449 306.595V321.057C60.9959 321.057 62.7282 321.418 64.3337 322.117C65.9392 322.816 67.3834 323.838 68.5763 325.12L75.8831 317.814V313.675Z" fill="#407BFF"/>
<path opacity="0.3" d="M75.8831 313.675C73.7299 311.434 71.1461 309.652 68.2869 308.436C65.4277 307.219 62.3521 306.593 59.2449 306.595V321.057C60.9959 321.057 62.7282 321.418 64.3337 322.117C65.9392 322.816 67.3834 323.838 68.5763 325.12L75.8831 317.814V313.675Z" fill="white"/>
<path d="M68.5763 320.981L75.8831 313.675C73.7299 311.434 71.1461 309.652 68.2869 308.436C65.4277 307.219 62.3521 306.593 59.2449 306.595V316.925C60.9954 316.924 62.7274 317.284 64.3328 317.982C65.9383 318.68 67.3828 319.701 68.5763 320.981Z" fill="#407BFF"/>
<path d="M67.2 329.246C68.9321 331.093 70.0756 333.414 70.485 335.912C69.9985 338.908 68.4621 341.633 66.1506 343.599C63.8391 345.565 60.9033 346.645 57.8686 346.645C54.8338 346.645 51.8981 345.565 49.5866 343.599C47.2751 341.633 45.7387 338.908 45.2522 335.912C45.7392 332.917 47.2757 330.192 49.587 328.225C51.8983 326.258 54.8337 325.178 57.8686 325.176V310.714C51.7353 310.714 45.8533 313.15 41.5164 317.487C37.1796 321.824 34.7432 327.706 34.7432 333.839C34.7432 334.528 34.7845 335.217 34.8396 335.905C34.7845 336.594 34.7432 337.283 34.7432 337.971C34.8478 344.035 37.3299 349.814 41.6547 354.065C45.9795 358.316 51.801 360.698 57.8651 360.698C63.9293 360.698 69.7508 358.316 74.0756 354.065C78.4004 349.814 80.8825 344.035 80.9871 337.971C80.9871 337.283 80.9871 336.594 80.8907 335.905C80.9527 335.217 80.9871 334.528 80.9871 333.839C80.9966 327.851 78.672 322.095 74.5068 317.793L67.2 325.114V329.246Z" fill="#407BFF"/>
<path opacity="0.3" d="M67.2 329.246C68.9321 331.093 70.0756 333.414 70.485 335.912C69.9985 338.908 68.4621 341.633 66.1506 343.599C63.8391 345.565 60.9033 346.645 57.8686 346.645C54.8338 346.645 51.8981 345.565 49.5866 343.599C47.2751 341.633 45.7387 338.908 45.2522 335.912C45.7392 332.917 47.2757 330.192 49.587 328.225C51.8983 326.258 54.8337 325.178 57.8686 325.176V310.714C51.7353 310.714 45.8533 313.15 41.5164 317.487C37.1796 321.824 34.7432 327.706 34.7432 333.839C34.7432 334.528 34.7845 335.217 34.8396 335.905C34.7845 336.594 34.7432 337.283 34.7432 337.971C34.8478 344.035 37.3299 349.814 41.6547 354.065C45.9795 358.316 51.801 360.698 57.8651 360.698C63.9293 360.698 69.7508 358.316 74.0756 354.065C78.4004 349.814 80.8825 344.035 80.9871 337.971C80.9871 337.283 80.9871 336.594 80.8907 335.905C80.9527 335.217 80.9871 334.528 80.9871 333.839C80.9966 327.851 78.672 322.095 74.5068 317.793L67.2 325.114V329.246Z" fill="white"/>
<path opacity="0.6" d="M74.5067 317.805L67.1999 325.112C69.2062 327.262 70.4103 330.037 70.6095 332.971C70.8087 335.905 69.9908 338.818 68.2936 341.219C66.5963 343.62 64.1234 345.363 61.2913 346.154C58.4592 346.945 55.441 346.736 52.7449 345.563C50.0489 344.389 47.8398 342.321 46.4896 339.709C45.1394 337.097 44.7307 334.099 45.3323 331.221C45.9339 328.343 47.5091 325.759 49.7925 323.907C52.0758 322.054 54.928 321.045 57.8685 321.049V310.719C52.5324 310.714 47.3587 312.554 43.2235 315.926C39.0884 319.299 36.2459 323.997 35.1775 329.225C34.1091 334.453 34.8804 339.89 37.3608 344.614C39.8413 349.339 43.8784 353.061 48.7885 355.15C53.6985 357.239 59.1798 357.567 64.304 356.078C69.4282 354.59 73.8803 351.375 76.9065 346.98C79.9326 342.585 81.3468 337.28 80.9094 331.962C80.4721 326.643 78.2102 321.64 74.5067 317.798V317.805Z" fill="white"/>
<path d="M52.5513 337.239V338.513H47.4483V337.508L50.0515 335.049C50.2743 334.852 50.4628 334.619 50.6093 334.36C50.703 334.187 50.7527 333.993 50.7539 333.796C50.761 333.678 50.7397 333.56 50.6918 333.452C50.6438 333.344 50.5707 333.25 50.4785 333.176C50.2416 333.016 49.9577 332.941 49.6727 332.962C49.3976 332.959 49.1251 333.016 48.8739 333.128C48.634 333.244 48.4277 333.419 48.2747 333.637L47.1384 332.9C47.412 332.503 47.7879 332.186 48.2265 331.985C48.7241 331.752 49.2683 331.637 49.8173 331.647C50.2705 331.638 50.7207 331.722 51.1396 331.895C51.4901 332.038 51.7933 332.276 52.0142 332.584C52.2249 332.894 52.3332 333.262 52.3241 333.637C52.3258 333.994 52.2481 334.347 52.0968 334.67C51.8663 335.086 51.5631 335.457 51.2016 335.765L49.6452 337.232L52.5513 337.239Z" fill="#263238"/>
<path d="M54.5773 338.197C54.1248 337.904 53.768 337.485 53.5512 336.992C53.0554 335.792 53.0554 334.445 53.5512 333.245C53.768 332.752 54.1248 332.333 54.5773 332.04C55.0256 331.762 55.5443 331.619 56.0717 331.627C56.5992 331.619 57.1179 331.762 57.5662 332.04C58.0148 332.337 58.3705 332.755 58.5923 333.245C59.0881 334.445 59.0881 335.792 58.5923 336.992C58.3725 337.483 58.0164 337.901 57.5662 338.197C57.1179 338.475 56.5992 338.618 56.0717 338.61C55.5443 338.618 55.0256 338.475 54.5773 338.197ZM57.0359 336.757C57.2673 336.242 57.387 335.683 57.387 335.118C57.387 334.553 57.2673 333.995 57.0359 333.479C56.9326 333.317 56.7901 333.184 56.6216 333.091C56.4531 332.999 56.264 332.951 56.0717 332.951C55.8795 332.951 55.6904 332.999 55.5219 333.091C55.3534 333.184 55.2109 333.317 55.1076 333.479C54.8762 333.995 54.7565 334.553 54.7565 335.118C54.7565 335.683 54.8762 336.242 55.1076 336.757C55.2109 336.92 55.3534 337.053 55.5219 337.145C55.6904 337.238 55.8795 337.286 56.0717 337.286C56.264 337.286 56.4531 337.238 56.6216 337.145C56.7901 337.053 56.9326 336.92 57.0359 336.757Z" fill="#263238"/>
<path d="M60.0724 334.906C59.7685 334.519 59.6034 334.042 59.6034 333.55C59.6034 333.058 59.7685 332.58 60.0724 332.193C60.2265 332.027 60.4145 331.896 60.6236 331.81C60.8328 331.723 61.0581 331.682 61.2844 331.69C61.5097 331.682 61.7342 331.722 61.9423 331.809C62.1504 331.896 62.3371 332.027 62.4896 332.193C62.7889 332.582 62.9512 333.059 62.9512 333.55C62.9512 334.04 62.7889 334.517 62.4896 334.906C62.3371 335.072 62.1504 335.203 61.9423 335.29C61.7342 335.377 61.5097 335.418 61.2844 335.409C61.0581 335.417 60.8328 335.377 60.6236 335.29C60.4145 335.203 60.2265 335.072 60.0724 334.906ZM61.8009 334.349C61.9231 334.1 61.9866 333.827 61.9866 333.55C61.9866 333.273 61.9231 332.999 61.8009 332.751C61.7441 332.667 61.6677 332.598 61.5782 332.551C61.4888 332.504 61.3891 332.479 61.2879 332.479C61.1866 332.479 61.0869 332.504 60.9975 332.551C60.9081 332.598 60.8316 332.667 60.7748 332.751C60.6321 332.989 60.5649 333.265 60.582 333.543C60.5635 333.823 60.6307 334.101 60.7748 334.342C60.8326 334.424 60.9094 334.491 60.9987 334.538C61.088 334.584 61.1872 334.608 61.2879 334.608C61.3885 334.608 61.4877 334.584 61.577 334.538C61.6663 334.491 61.7431 334.424 61.8009 334.342V334.349ZM65.3062 331.766H66.4494L61.8422 338.515H60.699L65.3062 331.766ZM65.0032 338.363C64.7457 338.212 64.5395 337.986 64.411 337.716C64.2701 337.407 64.1973 337.071 64.1973 336.731C64.1973 336.392 64.2701 336.056 64.411 335.747C64.5395 335.477 64.7457 335.251 65.0032 335.099C65.2637 334.945 65.5616 334.867 65.864 334.872C66.0903 334.864 66.3157 334.905 66.5248 334.991C66.734 335.078 66.922 335.209 67.0761 335.375C67.3799 335.762 67.5451 336.239 67.5451 336.731C67.5451 337.223 67.3799 337.701 67.0761 338.088C66.922 338.254 66.734 338.385 66.5248 338.471C66.3157 338.558 66.0903 338.599 65.864 338.591C65.5616 338.596 65.2637 338.517 65.0032 338.363ZM66.3805 337.53C66.5187 337.288 66.5833 337.01 66.5665 336.731C66.5857 336.455 66.5208 336.179 66.3805 335.939C66.3262 335.852 66.2499 335.781 66.1592 335.732C66.0685 335.684 65.9667 335.66 65.864 335.664C65.7634 335.662 65.6639 335.686 65.5748 335.733C65.4858 335.78 65.41 335.849 65.3544 335.933C65.2275 336.18 65.1614 336.454 65.1614 336.731C65.1614 337.009 65.2275 337.283 65.3544 337.53C65.4122 337.613 65.489 337.68 65.5783 337.726C65.6677 337.773 65.7668 337.797 65.8675 337.797C65.9681 337.797 66.0673 337.773 66.1566 337.726C66.2459 337.68 66.3227 337.613 66.3805 337.53Z" fill="#263238"/>
</svg>
