<svg width="18" height="20" viewBox="0 0 18 20" fill="none" xmlns="http://www.w3.org/2000/svg">
<path d="M8.99984 0.399902C7.09028 0.399902 5.25893 1.15847 3.90867 2.50873C2.55841 3.859 1.79984 5.69034 1.79984 7.5999V11.9031L0.951442 12.7515C0.783671 12.9193 0.669423 13.1331 0.623142 13.3659C0.576861 13.5986 0.600624 13.8398 0.691428 14.0591C0.782232 14.2783 0.936 14.4657 1.13329 14.5976C1.33058 14.7294 1.56254 14.7999 1.79984 14.7999H16.1998C16.4371 14.7999 16.6691 14.7294 16.8664 14.5976C17.0637 14.4657 17.2175 14.2783 17.3083 14.0591C17.3991 13.8398 17.4228 13.5986 17.3765 13.3659C17.3303 13.1331 17.216 12.9193 17.0482 12.7515L16.1998 11.9031V7.5999C16.1998 5.69034 15.4413 3.859 14.091 2.50873C12.7407 1.15847 10.9094 0.399902 8.99984 0.399902V0.399902ZM8.99984 19.5999C8.04506 19.5999 7.12939 19.2206 6.45426 18.5455C5.77913 17.8704 5.39984 16.9547 5.39984 15.9999H12.5998C12.5998 16.9547 12.2206 17.8704 11.5454 18.5455C10.8703 19.2206 9.95462 19.5999 8.99984 19.5999Z" fill="#262626"/>
</svg>
