<svg width="20" height="21" viewBox="0 0 20 21" fill="none" xmlns="http://www.w3.org/2000/svg">
<path d="M1.5999 0.200195C1.28164 0.200195 0.976418 0.326623 0.751374 0.551667C0.526331 0.776711 0.399902 1.08194 0.399902 1.4002C0.399902 1.71846 0.526331 2.02368 0.751374 2.24872C0.976418 2.47377 1.28164 2.6002 1.5999 2.6002H3.0639L3.4299 4.0666C3.43354 4.08348 3.43754 4.10028 3.4419 4.117L5.0715 10.633L3.9999 11.7034C2.4879 13.2154 3.5583 15.8002 5.6967 15.8002H15.9999C16.3182 15.8002 16.6234 15.6738 16.8484 15.4487C17.0735 15.2237 17.1999 14.9185 17.1999 14.6002C17.1999 14.2819 17.0735 13.9767 16.8484 13.7517C16.6234 13.5266 16.3182 13.4002 15.9999 13.4002H5.6967L6.8967 12.2002H14.7999C15.0227 12.2001 15.2411 12.1379 15.4305 12.0207C15.62 11.9035 15.7731 11.7359 15.8727 11.5366L19.4727 4.3366C19.5641 4.15369 19.6072 3.95046 19.598 3.7462C19.5888 3.54194 19.5276 3.34342 19.4201 3.16947C19.3127 2.99552 19.1625 2.85192 18.984 2.75229C18.8054 2.65266 18.6044 2.6003 18.3999 2.6002H5.5359L5.1639 1.1086C5.0989 0.849099 4.94905 0.618766 4.73815 0.454182C4.52726 0.289598 4.26742 0.200202 3.9999 0.200195H1.5999ZM17.1999 18.8002C17.1999 19.2776 17.0103 19.7354 16.6727 20.073C16.3351 20.4106 15.8773 20.6002 15.3999 20.6002C14.9225 20.6002 14.4647 20.4106 14.1271 20.073C13.7895 19.7354 13.5999 19.2776 13.5999 18.8002C13.5999 18.3228 13.7895 17.865 14.1271 17.5274C14.4647 17.1898 14.9225 17.0002 15.3999 17.0002C15.8773 17.0002 16.3351 17.1898 16.6727 17.5274C17.0103 17.865 17.1999 18.3228 17.1999 18.8002ZM5.7999 20.6002C6.27729 20.6002 6.73513 20.4106 7.0727 20.073C7.41026 19.7354 7.5999 19.2776 7.5999 18.8002C7.5999 18.3228 7.41026 17.865 7.0727 17.5274C6.73513 17.1898 6.27729 17.0002 5.7999 17.0002C5.32251 17.0002 4.86468 17.1898 4.52711 17.5274C4.18954 17.865 3.9999 18.3228 3.9999 18.8002C3.9999 19.2776 4.18954 19.7354 4.52711 20.073C4.86468 20.4106 5.32251 20.6002 5.7999 20.6002V20.6002Z" fill="#262626"/>
</svg>
