<svg width="1440" height="408" viewBox="0 0 1440 408" fill="none" xmlns="http://www.w3.org/2000/svg">
<g clip-path="url(#clip0_1163_36277)">
<rect width="1440" height="408" transform="matrix(-1 0 0 1 1440 0)" fill="#1068A3"/>
<g clip-path="url(#clip1_1163_36277)">
<path d="M994.294 72.4282H1360.83V289.792H994.294V72.4282Z" fill="white"/>
<path d="M986.726 26.5752V297.359H1368.4V26.5752H986.726ZM1360.83 289.791H994.294V72.4282H1360.83L1360.83 289.791Z" fill="url(#paint0_linear_1163_36277)"/>
<path d="M1161.49 243.333C1164.21 233.19 1166.93 223.048 1169.65 212.905C1176.15 232.863 1166.59 256.63 1177.2 274.744C1171.6 283.466 1160.76 286.946 1150.8 289.808C1146.05 291.169 1141.22 292.54 1136.29 292.43C1128.85 292.262 1121.88 288.718 1115.83 284.393C1105.15 276.757 1096.56 266.605 1088.25 256.441C1086 253.689 1082.34 251.298 1082.1 247.751C1080.35 221.682 1078.15 224.736 1076.92 215.98C1076.23 211.056 1083.53 213.164 1086.18 212.722C1084.27 208.399 1082.37 204.078 1080.46 199.758C1079.67 197.657 1081.33 196.722 1082.18 196.238C1083.59 195.471 1085.73 196.534 1086.89 197.636C1088.05 198.739 1089.1 200.874 1089.71 202.355C1091.55 206.826 1093.36 210.759 1094.58 214.866C1103.99 244.632 1128.71 260.924 1138.08 265.843C1147.36 270.716 1159.36 251.278 1161.49 243.331L1161.49 243.333Z" fill="url(#paint1_linear_1163_36277)"/>
<path d="M1226.95 224.541C1224.85 261.348 1190.69 270.537 1171.28 290.918C1168.85 293.479 1166.03 295.651 1162.93 297.358H1094.85C1091.27 296.618 1087.8 295.902 1084.49 295.268C1088.66 275.816 1095.01 240.673 1103.91 198.126C1119.86 208.21 1141.16 223.602 1164.78 219.063C1190.3 214.167 1181.96 171.175 1177.16 146.275C1177.16 146.275 1183.97 146.037 1191.53 145.515C1205.59 158.182 1229.26 184.138 1226.95 224.541Z" fill="#E7EFFE"/>
<path d="M1051.77 289.793H1244.05V297.36H1051.77V289.793Z" fill="url(#paint2_linear_1163_36277)"/>
<path d="M1101.83 171.175L1072.65 253.487L1182.33 292.159L1211.51 209.847L1101.83 171.175Z" fill="#23286B"/>
<path d="M1102.88 215.253C1103.19 215.574 1103.38 215.991 1103.43 216.437C1103.47 216.883 1103.36 217.33 1103.12 217.706C1101.98 219.355 1101.14 219.868 1100.05 220.109C1098.34 220.487 1096.15 220.245 1094.41 219.99C1092.58 219.721 1095.28 220.325 1099.24 220.88C1100.15 220.932 1101.03 221.221 1101.79 221.719C1102.15 221.995 1102.39 222.383 1102.5 222.818C1102.6 223.253 1102.55 223.71 1102.36 224.114C1101.46 225.898 1100.69 226.517 1099.64 226.9C1097.99 227.504 1095.84 227.705 1094.11 227.975C1092.07 228.269 1090.02 228.407 1087.96 228.385C1090.1 228.737 1092.26 229.217 1094.93 229.873C1095.7 229.997 1096.42 230.32 1097.03 230.808C1097.3 231.073 1097.48 231.423 1097.53 231.802C1097.58 232.18 1097.5 232.565 1097.3 232.891C1096.37 234.325 1095.67 234.784 1094.74 235.02C1093.29 235.387 1092.1 235.486 1092.66 235.905C1092.93 236.112 1093.13 236.406 1093.21 236.739C1093.3 237.072 1093.26 237.424 1093.12 237.737C1092.45 239.118 1091.87 239.603 1091.07 239.91C1089.81 240.394 1088.46 240.34 1086.54 240.673C1083.11 241.266 1080.39 241.9 1076.91 241.908C1075.67 241.912 1073.51 240.622 1072.98 239.496C1072.49 238.439 1072.98 236.429 1073.69 235.5C1074.08 234.64 1074.58 233.837 1075.18 233.114C1075.12 232.993 1074.89 232.312 1074.85 232.195C1074.44 230.967 1075.25 228.811 1076.15 227.879C1077.09 227.384 1076.95 227.421 1077.81 227.513C1077.09 227.215 1076.48 226.677 1076.11 225.989C1075.48 224.604 1076.17 221.996 1077.11 220.801C1078.55 219.845 1077.64 220.336 1080.86 220.103C1081.3 220.072 1081.7 220.05 1082.13 220.026C1081.9 220.001 1081.68 219.991 1081.45 219.958C1079.84 219.721 1077.31 217.644 1076.85 216.093C1076.42 214.638 1077.44 212.142 1078.53 211.082C1080.08 210.324 1080.74 210.81 1082.34 210.885C1089.51 211.22 1093.54 212.162 1100.46 214.086C1101.35 214.258 1102.18 214.662 1102.87 215.256L1102.88 215.253Z" fill="url(#paint3_linear_1163_36277)"/>
<path d="M1096.28 300.93C1096.28 303.175 1095.84 305.398 1094.98 307.472C1094.12 309.547 1092.86 311.432 1091.27 313.019C1089.68 314.607 1087.8 315.866 1085.72 316.725C1083.65 317.584 1081.42 318.026 1079.18 318.026H1029.42C1024.88 318.026 1020.53 316.225 1017.33 313.019C1014.12 309.812 1012.32 305.464 1012.32 300.93C1012.32 296.395 1014.12 292.047 1017.33 288.84C1020.53 285.634 1024.88 283.833 1029.42 283.833H1079.18C1083.71 283.833 1088.06 285.634 1091.27 288.841C1094.48 292.047 1096.28 296.395 1096.28 300.93Z" fill="#DEEAFE"/>
<path d="M1096.28 300.93C1096.28 303.175 1095.84 305.398 1094.98 307.472C1094.12 309.547 1092.86 311.432 1091.27 313.019C1089.68 314.607 1087.8 315.866 1085.72 316.725C1083.65 317.584 1081.42 318.026 1079.18 318.026H1054.3V283.833H1079.18C1083.71 283.834 1088.06 285.635 1091.27 288.841C1094.48 292.047 1096.28 296.395 1096.28 300.93Z" fill="#E94A47"/>
<path d="M1132.95 302.43C1113.21 314.526 1101.64 311.172 1079.39 312.945C1068.81 313.788 1069.58 316.351 1060.91 315.69C1057.57 315.438 1055.34 316.572 1054.58 318.072C1053.42 317.853 1052.17 317.619 1050.8 317.381C1032.05 314.091 1029.21 320.119 1035.17 321.856C1039.64 323.153 1053.42 327.391 1057.83 328.469C1064.69 330.143 1078.42 336.01 1089.35 335.913C1106.83 335.757 1119.53 329.195 1137.83 325.454L1132.95 302.43Z" fill="url(#paint4_linear_1163_36277)"/>
<path d="M1079.39 312.943C1068.81 313.786 1069.58 316.349 1060.91 315.69C1052.6 315.061 1051.16 323.035 1062.21 323.811C1071.26 324.447 1074.35 327.741 1083.08 327.047C1083.08 327.047 1085.83 323.447 1086.92 319.876C1088.08 316.075 1087.34 312.309 1079.39 312.943Z" fill="url(#paint5_linear_1163_36277)"/>
<path d="M1196.64 129.722C1196.63 129.751 1196.61 129.784 1196.6 129.814C1195.8 128.856 1195.28 128.188 1196.64 129.722Z" fill="#DEEAFE"/>
<path d="M1259.92 166.481C1240.97 150.983 1219.16 139.356 1196.65 129.722C1196.63 129.751 1196.62 129.784 1196.6 129.814H1196.6C1194.62 134.058 1192.13 138.045 1189.19 141.688C1180.97 151.467 1174.2 149.376 1173.98 149.303H1173.97C1174 149.373 1227.27 277.427 1232.42 289.795H1343.52C1337.31 256.244 1311.26 208.495 1259.92 166.481Z" fill="url(#paint6_linear_1163_36277)"/>
<path d="M1183.71 110.56C1187.14 117.501 1191.48 123.947 1196.64 129.721C1185.34 153.165 1173.97 149.302 1173.97 149.302C1173.94 135.85 1162.09 119.146 1162.09 119.146L1183.71 110.56Z" fill="url(#paint7_linear_1163_36277)"/>
<path d="M1126.25 103.447C1128.66 96.5867 1127.28 87.4188 1127.28 87.4178L1125.65 79.8409C1129.21 76.7872 1140.72 71.3563 1157.02 72.2771C1173.32 73.1979 1181.33 76.8791 1187.31 83.4143C1193.3 89.9494 1193.31 98.7104 1192.34 102.385C1190.38 109.841 1186.41 115.169 1183.15 118.103C1153.44 144.813 1133.44 115.715 1133.44 115.715C1121.52 114.82 1123.82 110.303 1126.24 103.447H1126.25Z" fill="#FFBEB6"/>
<path d="M1116.12 102.215C1118.61 107.123 1123.02 107.996 1125.47 105.736C1126.56 103.362 1127.72 101.624 1127.64 97.5184C1127.6 97.3845 1127.59 97.2416 1127.62 97.1042C1127.6 96.9914 1127.59 96.8797 1127.56 96.7679C1129.38 95.7653 1131.52 96.6387 1133.22 97.514C1133.89 106.373 1141.92 111.539 1146.3 106.214C1149.03 102.677 1148.8 97.334 1146.77 93.3232C1144.24 88.3258 1139.47 86.4039 1136.15 89.04C1135.27 89.8119 1134.56 90.751 1134.06 91.8017C1133.56 92.8523 1133.27 93.9933 1133.21 95.1571C1133.19 95.4421 1133.2 95.7334 1133.19 96.0213C1132.31 95.4652 1131.3 95.1272 1130.26 95.0351C1129.22 94.943 1128.17 95.0994 1127.2 95.4914C1125.25 89.7571 1120.39 87.8729 1117.38 90.2569C1114.51 92.5427 1113.94 97.9021 1116.12 102.212L1116.12 102.215ZM1135.94 90.9556C1140.06 85.9752 1147.9 92.4169 1147.15 100.938C1147.11 101.905 1146.88 102.854 1146.46 103.728C1146.05 104.603 1145.46 105.386 1144.74 106.03C1141.54 108.566 1137.27 105.7 1135.65 102.136C1134.57 100.018 1133.57 94.0466 1135.94 90.9556H1135.94ZM1117.07 101.462C1115.21 97.7845 1115.6 93.2729 1117.96 91.4032C1120.31 89.5379 1123.74 91.0161 1125.6 94.6974C1127.47 98.3787 1127.07 102.882 1124.71 104.755C1122.36 106.62 1118.93 105.142 1117.07 101.462H1117.07Z" fill="#23286B"/>
<path d="M1212.21 327.791C1198.97 330.936 1191.21 335.282 1170.43 353.425C1149.66 371.568 1124.99 363.866 1124.99 363.866L1113.35 267.86C1113.35 267.86 1118.73 268.228 1142.98 262.824C1167.23 257.419 1173.26 253.133 1177.67 223.872C1182.07 194.611 1173.97 149.308 1173.97 149.308L1173.98 149.303C1173.98 149.303 1185.35 153.167 1196.64 129.722C1194.13 126.906 1198.03 131.516 1198.03 131.516C1234.91 179.492 1247.53 220.34 1250.37 264.808C1253.23 309.833 1225.46 324.646 1212.21 327.791Z" fill="url(#paint8_linear_1163_36277)"/>
<path d="M1300.34 56.9434L1292.9 49.5025L1300.34 42.0615L1307.79 49.5025L1300.34 56.9434Z" fill="#A1C3FC"/>
<path d="M1320.65 56.9273L1313.21 49.4864L1320.65 42.0459L1328.1 49.4864L1320.65 56.9273Z" fill="white"/>
<path d="M1340.96 56.9591L1333.51 49.5181L1340.96 42.0776L1348.4 49.5181L1340.96 56.9591Z" fill="#1D72D8"/>
<path d="M1096.87 44.4991C1093.66 55.7273 1098.97 66.5036 1106.86 73.3C1095.38 60.1426 1098.53 43.9538 1098.53 43.9538C1124.76 52.9412 1150.5 46.3731 1169.84 43.6151C1195.49 39.9599 1215.81 55.8981 1211.7 81.9376C1208.11 104.634 1186.07 114.997 1186.07 114.997C1185.67 114.672 1178.6 109.223 1178.47 104.561C1178.24 96.729 1185.87 92.3282 1183.7 86.7284C1182.12 82.6552 1178.37 81.1276 1171.62 83.3219C1160.9 86.8097 1132.83 90.8089 1113.85 79.7747C1101.41 72.5394 1091.4 59.4038 1095.79 44.0607C1096 43.3427 1097.07 43.7878 1096.87 44.4996L1096.87 44.4991Z" fill="#1C2868"/>
</g>
<g clip-path="url(#clip2_1163_36277)">
<path d="M1109.52 465.573L1051.75 498.95C1026.4 489.539 1026.91 466.005 996.919 464.188C968.739 462.481 972.667 432.589 946.015 432.589C911.847 432.589 915.493 520.853 827.405 520.853C759.996 520.853 742.651 439.269 749.019 405.084L802.868 433.893C802.868 433.893 883.178 383.963 914.232 363.928C931.485 352.798 948.362 349.54 968.657 363.982C1005.34 390.092 1073.37 439.597 1109.52 465.573Z" fill="#89B3F4"/>
<path d="M1148.82 465.573L1086.89 503.284C1062.43 491.945 1066.01 468.045 1036.22 464.188C1005.63 460.23 1010.35 432.589 983.698 432.589C949.531 432.589 911.389 520.853 826.867 520.853C759.458 520.853 742.651 439.269 749.02 405.084L819.557 433.893L956.4 360.599C972.824 351.797 992.818 353.112 1007.95 363.982C1044.52 390.253 1112.67 439.597 1148.82 465.573Z" fill="#A1C3FC"/>
<path d="M1080.02 415.796C1073.53 412.366 1064.42 406.627 1053.07 407.64C1037.95 409 1032.17 417.74 1017.66 413.082C1015.96 412.534 1014.16 412.338 1012.38 412.541C1009.03 412.925 1003.2 413.833 996.442 415.931L998.216 390.864C1023.02 389.637 1022.18 379.103 1036.5 377.267C1038.38 377.022 1040.29 377.022 1042.2 377.229C1055.2 378.652 1067.33 389.819 1073.83 401.883C1084.16 409.915 1083.71 417.734 1080.02 415.796Z" fill="url(#paint9_linear_1163_36277)"/>
<path d="M830.682 263.295C715.975 334.702 728.977 451.27 754.369 487.304C813.618 487.304 848.256 444.152 869.255 409.68C847.584 372.125 838.755 321.168 860.116 277.479C860.965 271.851 867.588 261.36 873.561 254.026C852.989 246.14 842.873 243.263 842.873 243.263L830.682 263.295Z" fill="url(#paint10_linear_1163_36277)"/>
<path d="M875.7 252.129C875.7 252.129 862.739 269.959 860.116 277.478C860.116 277.478 854.493 279.101 844.946 264.17L859.76 239.818L875.7 252.129Z" fill="url(#paint11_linear_1163_36277)"/>
<path d="M902.099 195.759C902.099 195.759 906.469 212.079 912.498 217.313C921.048 224.736 919.738 225.805 911.111 230.957C911.111 230.957 895.453 267.996 858.684 245.475C858.684 245.475 842.465 234.411 842.383 226.79C842.3 219.17 843.915 207.29 851.632 204.5C859.346 201.712 899.186 183.565 902.099 195.759Z" fill="#FFBEB6"/>
<path d="M840.878 188.326C849.672 187.192 855.882 179.138 854.748 170.339C853.615 161.54 845.566 155.327 836.771 156.462C827.976 157.597 821.766 165.65 822.9 174.449C824.034 183.248 832.083 189.461 840.878 188.326Z" fill="#E94A47"/>
<path d="M772.181 237.343C774.7 229.95 780.708 224.282 788.233 222.199C798.116 219.616 817.574 225.492 822.425 214.074C825.911 205.871 823.884 198.93 836.002 188.872C827.23 189.677 819.466 183.214 818.66 174.438C818.624 174.042 818.602 173.645 818.595 173.249C818.565 172.3 820.039 172.1 820.07 173.059C820.126 181.056 826.65 187.492 834.643 187.435C835.931 187.424 837.21 187.245 838.449 186.897C846.176 181.105 857.184 176.849 872.423 175.451C903.379 172.605 910.14 195.584 908.08 211.288C907.551 210.321 907.039 209.461 906.578 208.44L906.518 208.329L905.155 205.068L905.001 204.683L901.808 197.111C901.808 197.111 888.123 201.573 881.714 211.656C875.304 221.74 863.812 219.361 859.679 217.193C855.547 215.026 848.551 220.561 852.997 228.074C853.251 228.506 853.531 228.967 853.823 229.448C863.552 241.807 861.425 259.721 849.073 269.454C847.001 271.086 844.714 272.422 842.275 273.425C841.89 273.571 841.46 273.378 841.316 272.994C841.176 272.628 841.346 272.216 841.7 272.053C851.779 267.889 858.366 258.068 858.404 247.16C856.964 254.071 851.194 262.272 836.226 271.507L777.078 240.174C780.642 231.008 789.694 225.173 799.509 225.718C812.29 226.045 817.414 225.058 820.737 218.359C817.616 220.931 813.784 222.491 809.755 222.829C803.654 223.54 797.459 222.156 791.378 223.102C783.126 224.3 776.239 230.026 773.551 237.926C773.22 238.821 771.85 238.24 772.181 237.343Z" fill="#E94A47"/>
<path d="M899.626 211.826C902.399 215.023 907.24 215.366 910.435 212.591C911.592 211.586 912.422 210.257 912.815 208.775C913.124 207.651 911.424 206.957 911.113 208.098C910.402 211.242 907.278 213.215 904.135 212.503C902.952 212.234 901.879 211.602 901.071 210.697C900.276 209.836 898.826 210.957 899.626 211.826Z" fill="#23286B"/>
<path d="M853.749 293.044C889.68 412.661 927.995 395.849 1010.01 388.383C1014.42 420.916 1015.3 452.412 1013.52 485.315C957.787 487.358 957.472 469.646 908.94 465.572C855.99 461.127 847.421 442.154 837.932 413.994C827.136 381.958 826.417 342.427 825.654 312.134L853.749 293.044Z" fill="url(#paint12_linear_1163_36277)"/>
<path d="M1073.83 401.883C1070.51 399.384 1067.65 397.757 1061.56 395.655C1059.7 391.39 1049.73 379.576 1039.05 377.122C1054.18 376.942 1067.33 389.819 1073.83 401.883Z" fill="url(#paint13_linear_1163_36277)"/>
</g>
<path opacity="0.5" fill-rule="evenodd" clip-rule="evenodd" d="M250.659 408C160.393 382.986 73.3729 348.962 0 305.269L0 0H921.363C706.07 87.8754 729.381 216.535 747.362 315.779C753.814 351.387 759.579 383.208 753.392 408H250.659Z" fill="#012B24"/>
</g>
<defs>
<linearGradient id="paint0_linear_1163_36277" x1="986.728" y1="161.968" x2="1368.41" y2="161.968" gradientUnits="userSpaceOnUse">
<stop stop-color="#EEEEEE"/>
<stop offset="1" stop-color="#D6D7D8"/>
</linearGradient>
<linearGradient id="paint1_linear_1163_36277" x1="1126.22" y1="261.494" x2="1127.88" y2="223.141" gradientUnits="userSpaceOnUse">
<stop stop-color="#FFBEB6"/>
<stop offset="1" stop-color="#F2A19C"/>
</linearGradient>
<linearGradient id="paint2_linear_1163_36277" x1="1144.36" y1="313.679" x2="1151.45" y2="273.474" gradientUnits="userSpaceOnUse">
<stop stop-color="#EEEEEE"/>
<stop offset="1" stop-color="#D6D7D8"/>
</linearGradient>
<linearGradient id="paint3_linear_1163_36277" x1="1075.56" y1="225.724" x2="1104.51" y2="226.075" gradientUnits="userSpaceOnUse">
<stop stop-color="#FFBEB6"/>
<stop offset="1" stop-color="#F2A19C"/>
</linearGradient>
<linearGradient id="paint4_linear_1163_36277" x1="1032.38" y1="319.17" x2="1137.83" y2="319.17" gradientUnits="userSpaceOnUse">
<stop stop-color="#FFBEB6"/>
<stop offset="0.577" stop-color="#FEBCB4"/>
<stop offset="0.784" stop-color="#FBB5AE"/>
<stop offset="0.932" stop-color="#F6AAA4"/>
<stop offset="1" stop-color="#F2A19C"/>
</linearGradient>
<linearGradient id="paint5_linear_1163_36277" x1="1087.35" y1="320.007" x2="1054.3" y2="320.007" gradientUnits="userSpaceOnUse">
<stop stop-color="#FFBEB6"/>
<stop offset="0.577" stop-color="#FEBCB4"/>
<stop offset="0.784" stop-color="#FBB5AE"/>
<stop offset="0.932" stop-color="#F6AAA4"/>
<stop offset="1" stop-color="#F2A19C"/>
</linearGradient>
<linearGradient id="paint6_linear_1163_36277" x1="1245.93" y1="292.177" x2="1272.22" y2="143.041" gradientUnits="userSpaceOnUse">
<stop offset="0.212" stop-color="#DEEAFE"/>
<stop offset="1" stop-color="#A1C3FC"/>
</linearGradient>
<linearGradient id="paint7_linear_1163_36277" x1="-1919.58" y1="2119.79" x2="-1849.42" y2="2080.09" gradientUnits="userSpaceOnUse">
<stop stop-color="#FFBEB6"/>
<stop offset="1" stop-color="#F2A19C"/>
</linearGradient>
<linearGradient id="paint8_linear_1163_36277" x1="1195.87" y1="356.078" x2="1157.02" y2="135.644" gradientUnits="userSpaceOnUse">
<stop offset="0.212" stop-color="#DEEAFE"/>
<stop offset="1" stop-color="#A1C3FC"/>
</linearGradient>
<linearGradient id="paint9_linear_1163_36277" x1="1006.87" y1="418.633" x2="940.723" y2="449.077" gradientUnits="userSpaceOnUse">
<stop stop-color="#FFBEB6"/>
<stop offset="0.7679" stop-color="#F5A9A3"/>
<stop offset="1" stop-color="#F2A19C"/>
</linearGradient>
<linearGradient id="paint10_linear_1163_36277" x1="749.015" y1="309.135" x2="845.056" y2="399.997" gradientUnits="userSpaceOnUse">
<stop stop-color="#28306D"/>
<stop offset="0.5685" stop-color="#1F275F"/>
<stop offset="1" stop-color="#171F51"/>
</linearGradient>
<linearGradient id="paint11_linear_1163_36277" x1="844.947" y1="258.674" x2="875.7" y2="258.674" gradientUnits="userSpaceOnUse">
<stop stop-color="#FFBEB6"/>
<stop offset="1" stop-color="#F2A19C"/>
</linearGradient>
<linearGradient id="paint12_linear_1163_36277" x1="857.401" y1="352.305" x2="1065.95" y2="533.383" gradientUnits="userSpaceOnUse">
<stop offset="0.5685" stop-color="#1F275F"/>
<stop offset="1" stop-color="#171F51"/>
</linearGradient>
<linearGradient id="paint13_linear_1163_36277" x1="1067.05" y1="381.649" x2="1040.56" y2="401.185" gradientUnits="userSpaceOnUse">
<stop offset="0.0739" stop-color="#FFBEB6"/>
<stop offset="0.8665" stop-color="#F2A19C"/>
</linearGradient>
<clipPath id="clip0_1163_36277">
<rect width="1440" height="408" fill="white"/>
</clipPath>
<clipPath id="clip1_1163_36277">
<rect width="381.679" height="338.917" fill="white" transform="translate(986.726 26.5752)"/>
</clipPath>
<clipPath id="clip2_1163_36277">
<rect width="489.555" height="365.062" fill="white" transform="translate(737.111 156.332)"/>
</clipPath>
</defs>
</svg>
